<?xml version="1.0" standalone="no"?>
<!DOCTYPE svg PUBLIC "-//W3C//DTD SVG 20010904//EN"
 "http://www.w3.org/TR/2001/REC-SVG-20010904/DTD/svg10.dtd">
<svg version="1.0" xmlns="http://www.w3.org/2000/svg"
 width="500.000000pt" height="500.000000pt" viewBox="0 0 500.000000 500.000000"
 preserveAspectRatio="xMidYMid meet">
<metadata>
Created by potrace 1.14, written by Peter Selinger 2001-2017
</metadata>
<g transform="translate(0.000000,500.000000) scale(0.100000,-0.100000)"
fill="#000000" stroke="none">
<path d="M2355 4880 c-10 -11 -29 -20 -42 -20 -27 0 -29 -12 -7 -71 9 -24 17
-54 18 -67 4 -27 2 -25 44 -46 41 -21 45 -51 5 -35 -56 21 -91 71 -127 182
-10 30 -75 11 -89 -25 -4 -11 -17 -18 -31 -18 -30 0 -56 -24 -56 -53 0 -12 -9
-28 -20 -35 -13 -8 -20 -23 -20 -42 0 -17 -5 -30 -10 -30 -18 0 -34 -48 -21
-63 9 -11 6 -20 -11 -42 -17 -22 -19 -32 -11 -54 7 -19 5 -32 -6 -50 -13 -21
-13 -26 2 -53 11 -19 14 -35 9 -45 -10 -17 -4 -61 9 -69 5 -3 9 -23 9 -44 0
-29 5 -42 20 -50 14 -7 20 -21 20 -44 0 -24 6 -35 23 -43 12 -6 23 -20 24 -33
2 -26 20 -50 38 -50 7 0 16 -12 20 -27 9 -37 23 -53 46 -53 11 0 19 -7 19 -16
0 -19 28 -43 51 -44 8 0 25 -11 37 -25 12 -14 28 -25 35 -25 30 0 36 -37 31
-185 -4 -129 -7 -152 -28 -193 -13 -26 -32 -55 -43 -64 -94 -85 -353 -66 -464
34 -26 24 -79 91 -79 100 0 4 28 4 63 1 l62 -6 -21 24 c-11 13 -38 43 -59 67
-65 72 -134 182 -154 246 l-19 61 -12 -30 c-31 -78 -51 -187 -54 -290 -4 -142
3 -199 27 -203 17 -4 21 2 31 51 8 33 23 35 35 5 18 -46 125 -160 227 -245 46
-37 48 -47 26 -103 -15 -38 -15 -39 2 -65 10 -15 14 -35 10 -53 -5 -23 -1 -33
16 -45 13 -9 24 -28 25 -44 1 -15 3 -34 3 -41 1 -7 13 -18 27 -24 16 -7 25
-19 25 -35 0 -22 34 -47 52 -37 3 2 9 -9 13 -26 7 -34 20 -45 52 -45 12 0 32
-13 44 -29 16 -20 28 -27 45 -23 17 3 25 -1 29 -14 6 -19 40 -33 66 -28 8 1
27 -4 42 -11 21 -10 36 -11 55 -4 15 5 41 7 57 4 17 -4 39 -2 50 4 11 5 39 8
61 7 32 -2 45 2 56 18 8 11 27 22 42 25 16 3 35 15 43 26 8 12 21 19 28 16 19
-7 55 22 55 45 0 12 7 19 18 19 22 0 52 30 52 51 1 8 15 23 33 34 23 15 32 28
32 48 -1 15 4 27 11 27 19 0 37 28 37 57 0 15 8 43 18 62 13 25 15 38 8 47 -7
9 -5 20 7 39 14 22 15 30 5 53 -11 23 -10 28 4 37 83 48 204 169 235 233 20
43 50 57 50 24 0 -20 29 -52 48 -52 6 0 13 8 17 19 9 30 -2 312 -15 356 -19
68 -41 125 -49 125 -4 0 -18 -24 -32 -52 -34 -73 -127 -213 -183 -275 -45 -49
-46 -53 -24 -54 39 -2 72 3 91 13 17 9 17 7 -2 -29 -34 -66 -144 -155 -171
-138 -6 3 -10 24 -10 47 0 31 -4 41 -20 45 -14 4 -20 14 -20 35 0 18 -9 38
-25 52 -14 13 -25 30 -25 37 -1 21 -25 49 -44 49 -9 0 -16 3 -17 8 -5 47 -14
60 -49 65 -15 2 -27 12 -29 23 -5 27 -32 44 -61 37 -14 -3 -22 -2 -18 2 15 16
-13 45 -45 45 -60 1 -65 19 -72 274 l-7 226 122 0 c125 0 152 6 182 44 25 30
22 63 -9 92 -20 19 -24 27 -15 36 14 14 16 58 3 58 -6 0 -4 15 4 33 12 30 12
37 -2 58 -10 14 -16 38 -14 60 2 27 -3 41 -16 50 -10 8 -20 25 -20 39 -2 27
-27 50 -55 50 -10 0 -18 6 -18 14 0 20 -17 29 -51 28 -18 0 -29 4 -29 13 0 19
-15 27 -59 32 -20 2 -46 9 -58 15 -12 6 -34 8 -50 4 -40 -10 -46 -10 -69 -2
-14 4 -26 0 -39 -14z m24 -76 c-29 -51 -28 -49 -40 -37 -12 12 2 52 27 77 29
29 37 3 13 -40z m86 6 c-37 -37 -65 -51 -65 -31 0 13 52 62 75 71 33 13 31 2
-10 -40z m125 16 c0 -17 -72 -56 -103 -56 -21 1 -20 2 8 26 17 13 35 29 40 34
16 14 55 12 55 -4z m-376 -73 c0 -41 -27 -88 -54 -98 -30 -10 -79 -12 -92 -4
-18 11 19 39 47 35 34 -6 55 12 55 45 0 37 17 72 33 66 7 -2 12 -22 11 -44z
m461 36 c10 -15 1 -21 -37 -25 -17 -2 -36 -8 -41 -13 -11 -11 -37 -3 -37 10 0
26 101 51 115 28z m-200 -176 c0 -118 2 -137 16 -140 23 -6 12 -43 -12 -43
-11 0 -19 -7 -19 -17 0 -16 15 -18 172 -18 176 0 205 -6 192 -40 -7 -18 4 -17
-134 -19 -81 -1 -122 -6 -138 -16 -21 -14 -25 -13 -42 8 -19 23 -22 23 -209
22 -171 0 -191 1 -200 17 -6 11 -6 24 0 35 5 9 10 30 11 45 1 15 8 37 15 48 7
11 13 31 13 46 0 15 7 32 15 39 9 7 13 20 10 28 -3 9 3 21 16 30 11 8 29 28
39 44 l18 31 29 -42 c17 -25 47 -50 79 -66 l51 -26 -1 -72 -1 -72 -111 -3
c-90 -2 -114 -6 -127 -20 -15 -16 -7 -17 136 -17 l152 0 -1 55 c0 30 -3 107
-7 170 -6 114 0 144 27 134 9 -3 12 -42 11 -141z m282 123 c3 -3 -1 -14 -10
-24 -10 -10 -17 -26 -17 -35 0 -21 -19 -32 -32 -19 -6 6 -6 12 1 16 6 4 11 13
11 21 0 10 -9 12 -36 8 -31 -5 -36 -4 -32 13 5 26 94 42 115 20z m-617 -16 c0
-13 -7 -20 -18 -20 -24 0 -32 8 -25 26 8 22 43 17 43 -6z m510 -37 c13 -3 20
-14 20 -29 0 -13 4 -24 9 -24 6 0 10 -15 10 -32 1 -162 -6 -175 -95 -173 l-59
1 0 74 c0 81 7 100 37 100 23 0 78 36 78 51 0 6 -14 23 -31 38 -21 20 -27 30
-17 33 7 3 16 -4 21 -14 4 -11 16 -22 27 -25z m140 -10 c0 -21 -26 -80 -39
-88 -7 -4 -19 -4 -27 -1 -13 5 -11 13 11 54 25 46 55 65 55 35z m-650 -63 c0
-14 -11 -22 -40 -30 -22 -6 -40 -15 -40 -20 0 -6 -9 -10 -20 -10 -22 0 -25 12
-10 41 7 11 21 19 38 19 15 0 34 5 42 10 22 15 30 12 30 -10z m670 -46 c0 -16
-38 -56 -72 -75 -31 -17 -21 22 14 58 35 36 58 43 58 17z m-707 -27 c7 -19 -2
-29 -46 -55 -68 -39 -81 -2 -14 40 50 31 53 32 60 15z m707 -60 c0 -32 -71
-65 -100 -47 -9 6 -7 9 7 14 11 4 28 15 38 26 21 23 55 27 55 7z m-720 -24
c-1 -21 -77 -106 -89 -98 -5 2 -11 14 -14 24 -4 15 7 29 41 55 51 40 62 44 62
19z m-6 -89 c7 -18 4 -25 -37 -77 -23 -30 -32 -35 -43 -26 -22 18 -17 36 22
79 40 44 49 48 58 24z m11 -83 c3 -11 -4 -42 -16 -70 -18 -44 -24 -49 -40 -40
-26 13 -24 30 9 83 30 51 38 55 47 27z m286 -111 c-2 -58 -4 -133 -5 -167 -1
-61 -8 -78 -20 -48 -3 8 -17 15 -31 15 -18 0 -25 5 -25 20 0 20 -32 44 -44 33
-3 -3 -6 6 -6 20 0 23 -33 55 -50 48 -3 -1 -6 10 -8 24 -2 15 -10 29 -18 32
-8 3 -14 17 -14 33 0 15 -9 35 -20 45 -11 10 -20 27 -20 37 0 17 9 18 132 16
l132 -3 -3 -105z m97 -102 c2 -197 2 -206 -17 -211 -12 -3 -22 1 -26 12 -4 9
-9 104 -12 211 l-5 196 29 -2 28 -1 3 -205z m-352 131 c3 -6 -1 -27 -9 -47 -8
-21 -18 -45 -21 -54 -6 -20 -36 -14 -36 7 0 20 40 105 50 105 5 0 12 -5 16
-11z m36 -119 c-2 -65 -17 -90 -39 -67 -9 9 -9 25 -2 62 14 70 17 77 32 72 8
-3 11 -24 9 -67z m52 -36 c20 -52 -4 -130 -32 -102 -13 13 -17 100 -5 111 11
12 31 7 37 -9z m64 -61 c10 -20 10 -99 0 -109 -4 -3 -14 -4 -23 -1 -21 9 -22
127 0 127 8 0 18 -8 23 -17z m72 -99 c10 -46 9 -58 -2 -65 -20 -13 -39 13 -42
57 -3 42 9 78 24 69 5 -3 14 -31 20 -61z m130 -111 c0 -48 -3 -64 -11 -56 -13
13 -24 86 -16 108 14 36 27 11 27 -52z m-43 -5 c-3 -8 -6 -5 -6 6 -1 11 2 17
5 13 3 -3 4 -12 1 -19z m149 -95 c-11 -28 -21 -10 -23 40 l-2 52 15 -40 c8
-22 12 -45 10 -52z m65 23 c20 -50 18 -69 -8 -64 -18 3 -45 82 -36 105 9 24
25 9 44 -41z m-190 12 c17 -22 18 -46 19 -370 0 -191 -4 -349 -8 -352 -14 -9
-29 8 -36 41 -8 34 -56 82 -84 84 -9 1 -30 3 -47 5 -83 9 -112 13 -135 18 -14
4 -34 8 -45 10 -11 2 -49 14 -85 26 -196 66 -342 210 -391 386 -10 35 -14 62
-10 59 5 -2 12 -17 15 -31 7 -28 81 -142 119 -185 36 -40 128 -106 177 -126
35 -14 72 -18 165 -18 104 0 127 3 170 23 27 12 57 30 66 38 16 14 18 13 24
-15 7 -33 41 -81 57 -81 6 0 8 85 4 255 -3 140 -3 255 0 255 3 0 14 -10 25
-22z m269 -39 c4 -13 6 -40 6 -59 -1 -28 -5 -35 -21 -35 -17 0 -20 8 -23 49
-2 27 -1 55 2 63 8 21 29 11 36 -18z m-115 -55 c9 -15 22 -23 31 -20 8 3 20
-6 29 -24 9 -18 23 -30 35 -30 13 0 20 -7 20 -20 0 -13 10 -24 25 -30 15 -6
25 -17 25 -29 0 -11 10 -27 22 -35 12 -9 19 -18 16 -22 -10 -10 13 -64 27 -64
7 0 12 -10 11 -25 -1 -23 -4 -25 -56 -25 -45 0 -66 6 -110 33 -46 27 -60 43
-87 97 -30 60 -41 130 -34 208 2 21 28 13 46 -14z m184 12 c8 -9 10 -32 5 -66
-6 -45 -9 -51 -28 -48 -18 3 -21 11 -24 66 -3 56 -1 62 16 62 11 0 25 -6 31
-14z m461 -123 c-12 -37 -35 -86 -52 -111 -59 -85 -171 -178 -201 -166 -23 9
1 58 37 78 17 9 45 29 62 44 47 41 142 178 156 225 10 33 14 37 16 19 2 -12
-6 -53 -18 -89z m-406 44 c13 -19 13 -29 3 -65 -7 -24 -16 -43 -20 -43 -4 1
-12 1 -18 1 -11 0 -9 46 4 95 3 11 6 23 6 28 2 13 10 8 25 -16z m53 -93 c3
-23 -28 -95 -41 -91 -17 5 -16 41 1 80 17 39 34 44 40 11z m40 -70 c9 -23 -22
-81 -47 -89 -33 -11 -34 0 -4 54 28 53 41 62 51 35z m-320 -93 c66 -33 96 -41
179 -45 l59 -4 6 -38 c4 -22 6 -40 5 -41 -7 -8 -164 -43 -191 -43 -35 0 -84
44 -104 95 -12 32 -24 105 -16 105 2 0 30 -13 62 -29z m347 -33 c-24 -41 -47
-68 -60 -68 -19 0 -18 44 1 60 8 7 15 10 15 7 0 -4 10 -2 23 3 30 12 29 12 21
-2z m6 -58 c-8 -5 -17 -7 -19 -4 -3 3 1 9 9 14 8 5 17 7 19 4 3 -3 -1 -9 -9
-14z m-1025 -90 c3 -5 -1 -10 -9 -10 -9 0 -16 5 -16 10 0 6 4 10 9 10 6 0 13
-4 16 -10z m1045 -19 c0 -24 -95 -74 -110 -56 -11 14 4 30 59 63 37 23 51 21
51 -7z m-990 -11 c13 -9 10 -14 -15 -36 -16 -14 -38 -29 -47 -35 -29 -16 -22
20 9 53 30 31 32 32 53 18z m852 -50 c-2 -22 -8 -43 -13 -46 -5 -3 -9 -18 -9
-34 0 -15 -7 -30 -15 -34 -8 -3 -15 -13 -15 -23 0 -10 -10 -23 -22 -28 -13 -6
-28 -21 -35 -35 -6 -13 -22 -28 -33 -32 -12 -4 -24 -17 -27 -28 -3 -12 -13
-20 -22 -19 -31 3 -40 -1 -46 -20 -4 -12 -13 -17 -31 -15 -16 1 -29 -4 -36
-16 -9 -14 -19 -17 -40 -13 -15 3 -34 0 -42 -6 -10 -8 -21 -9 -33 -3 -10 5
-31 8 -47 6 -19 -2 -34 3 -41 13 -8 10 -21 14 -38 11 -16 -3 -28 0 -31 8 -3 8
-13 14 -22 14 -9 0 -25 11 -35 25 -11 13 -26 22 -34 19 -8 -4 -15 3 -17 18 -2
13 -15 28 -30 36 -17 8 -28 21 -28 32 0 11 -9 25 -20 32 -11 7 -20 23 -20 35
0 12 -6 28 -13 35 -8 6 -11 22 -9 35 2 13 -1 30 -8 38 -21 25 -6 27 59 10 171
-44 294 -114 327 -186 21 -48 39 -49 58 -6 33 72 95 117 212 155 50 16 104 37
120 45 40 22 40 22 36 -23z m116 -37 c-17 -21 -87 -55 -98 -48 -18 11 -10 22
37 53 35 23 51 28 60 20 10 -8 11 -14 1 -25z m-948 16 c0 -20 -54 -99 -68 -99
-26 0 -23 31 8 70 30 38 60 53 60 29z m12 -112 c-7 -18 -12 -43 -12 -55 0 -35
-30 -37 -42 -2 -6 17 20 92 36 102 21 14 30 -11 18 -45z m908 19 c0 -19 -24
-37 -52 -39 -13 -1 -28 -7 -34 -15 -8 -12 -12 -11 -23 2 -19 22 2 46 40 46 15
0 31 5 34 10 9 15 35 12 35 -4z m-860 -116 c0 -42 1 -43 13 -21 21 41 37 37
37 -8 0 -23 6 -50 12 -61 10 -16 10 -22 0 -32 -11 -11 -17 -9 -33 11 -10 13
-19 32 -19 42 0 15 -5 18 -24 13 -32 -8 -45 17 -36 68 8 43 29 65 42 45 4 -7
8 -32 8 -57z m808 21 c-5 -24 -101 -23 -106 1 -2 12 5 17 25 20 50 6 84 -3 81
-21z m-59 -65 c15 -18 3 -26 -46 -28 -52 -2 -83 10 -76 28 7 19 106 20 122 0z
m-630 -24 c6 -10 8 -28 5 -39 -3 -12 -1 -24 5 -27 16 -10 13 -46 -3 -46 -23 0
-46 41 -46 81 0 51 20 66 39 31z m531 -17 c8 -2 21 -4 28 -4 6 -1 12 -10 12
-21 0 -17 -7 -20 -40 -20 -22 0 -48 4 -58 9 -9 5 -25 12 -36 15 -15 5 -16 9
-5 22 12 15 22 15 99 -1z m-457 -42 c7 -16 21 -41 31 -56 14 -20 16 -31 8 -39
-19 -19 -72 44 -72 86 0 43 16 47 33 9z m341 2 c11 -8 30 -15 42 -15 12 0 24
-6 27 -14 6 -16 -11 -36 -30 -36 -24 0 -93 40 -93 54 0 29 24 34 54 11z m-245
-47 c33 -44 40 -78 18 -78 -14 0 -77 89 -77 109 0 24 30 9 59 -31z m194 5 c42
-26 49 -53 14 -53 -26 0 -96 48 -97 67 0 13 21 23 35 15 6 -3 27 -16 48 -29z
m-107 -4 c47 -37 61 -59 44 -69 -13 -8 -50 -2 -50 9 0 3 -14 21 -30 40 -27 30
-31 51 -11 51 5 0 26 -14 47 -31z"/>
<path d="M745 3064 c-38 -20 -54 -43 -55 -79 0 -42 23 -71 80 -100 79 -40 96
-67 64 -99 -16 -17 -70 -21 -92 -8 -7 5 -15 22 -18 38 -7 37 -8 38 -28 19 -9
-9 -16 -29 -16 -45 0 -38 27 -52 104 -56 55 -3 61 -1 92 30 62 62 43 113 -61
171 -62 34 -79 62 -55 91 23 26 90 15 90 -16 0 -10 6 -23 14 -29 16 -14 26 4
26 49 0 31 2 29 -91 44 -15 2 -39 -2 -54 -10z"/>
<path d="M1515 3027 c-12 -29 -26 -63 -29 -77 -23 -79 -61 -167 -80 -182 -32
-25 -11 -34 72 -29 26 1 29 19 6 35 -11 8 -13 20 -9 39 7 26 10 27 69 27 60 0
62 -1 73 -31 11 -28 10 -33 -10 -50 -24 -20 -23 -20 38 -21 73 -1 85 2 85 17
0 8 -6 15 -14 15 -9 0 -27 32 -46 83 -70 184 -83 217 -89 218 -3 0 -14 2 -24
4 -14 3 -24 -9 -42 -48z m69 -132 c5 -19 2 -21 -39 -20 -50 0 -50 0 -31 46 7
19 17 43 21 54 7 18 10 15 25 -20 10 -22 21 -49 24 -60z"/>
<path d="M997 3056 c-4 -9 2 -17 14 -21 18 -6 19 -15 18 -136 0 -99 -4 -129
-14 -129 -7 0 -15 -6 -18 -14 -4 -11 5 -15 38 -18 52 -4 87 3 92 19 2 6 -4 13
-14 15 -15 4 -18 15 -18 59 l1 54 67 3 67 3 0 -61 c0 -45 -4 -60 -14 -60 -8 0
-16 -7 -20 -15 -6 -16 -2 -17 74 -17 59 0 60 1 60 17 0 8 -7 15 -15 15 -18 0
-17 -10 -19 138 -1 109 0 123 16 128 10 3 18 12 18 20 0 11 -15 14 -65 14 -52
0 -65 -3 -65 -15 0 -9 7 -18 15 -21 11 -5 15 -21 15 -61 l0 -54 -67 3 -68 3
-1 45 c0 56 4 70 22 70 8 0 14 7 14 15 0 21 -125 22 -133 1z"/>
<path d="M3235 3052 c-10 -10 -5 -82 5 -82 6 0 15 11 20 25 9 24 14 26 65 23
30 -2 55 -6 55 -11 0 -4 -23 -44 -52 -90 -83 -133 -109 -179 -104 -185 3 -3
63 -5 133 -5 l128 0 0 44 c0 50 -25 63 -35 19 -6 -26 -3 -26 -112 -21 l-28 1
44 69 c87 136 126 204 120 210 -7 7 -232 10 -239 3z"/>
<path d="M3585 3052 c-11 -11 -4 -32 10 -32 23 0 22 -248 -2 -265 -23 -17 -9
-32 29 -29 18 1 45 3 61 3 28 1 40 31 12 31 -11 0 -15 11 -15 38 -3 213 -3
215 13 227 10 7 17 16 17 22 0 9 -116 14 -125 5z"/>
<path d="M3826 3053 c-13 -14 -5 -33 15 -33 11 0 18 -3 16 -7 -3 -5 -8 -44
-12 -88 -10 -125 -15 -160 -23 -163 -19 -7 -36 -22 -31 -27 10 -10 83 -12 102
-3 23 12 22 28 -4 28 -20 0 -20 3 -14 78 6 70 9 98 14 127 2 11 77 -182 83
-212 2 -10 12 -18 23 -18 17 0 27 21 62 124 46 139 47 139 58 -21 5 -70 3 -77
-15 -83 -11 -3 -20 -11 -20 -16 0 -10 5 -10 75 -10 25 0 50 0 55 0 16 1 12 31
-4 31 -22 0 -24 7 -31 115 -4 55 -9 108 -11 119 -2 10 6 26 19 36 l22 18 -25
6 c-14 3 -41 4 -60 3 -34 -3 -36 -4 -62 -82 -50 -146 -45 -144 -87 -25 l-37
105 -51 2 c-28 1 -54 -1 -57 -4z"/>
<path d="M3047 2630 c-4 -15 0 -20 16 -20 30 -1 1268 -1 1290 -1 10 1 17 9 17
21 0 20 -7 20 -659 20 -647 -1 -659 -1 -664 -20z"/>
<path d="M550 2620 c0 -20 7 -20 658 -20 362 0 661 3 665 6 3 3 3 12 0 20 -4
12 -108 14 -664 14 -652 0 -659 0 -659 -20z"/>
<path d="M2945 2552 c-3 -8 -3 -17 -1 -21 3 -4 391 -7 863 -6 851 0 858 0 858
20 0 20 -7 20 -857 20 -710 0 -859 -2 -863 -13z"/>
<path d="M253 2544 c-3 -7 -3 -17 0 -21 4 -6 1683 -10 1717 -4 3 1 6 9 7 20 1
17 -27 18 -859 18 -698 0 -861 -2 -865 -13z"/>
<path d="M1588 2453 c-14 -2 -31 -10 -36 -16 -5 -7 -33 -77 -62 -157 -28 -80
-67 -185 -85 -235 -18 -49 -41 -114 -51 -144 -15 -41 -25 -56 -46 -63 -26 -9
-46 -43 -34 -55 3 -4 51 -6 107 -6 76 0 103 3 110 14 17 26 4 44 -38 53 l-42
9 21 56 c11 31 25 60 30 66 9 10 221 16 236 6 9 -6 52 -114 52 -130 0 -5 -13
-11 -29 -14 -28 -6 -51 -40 -37 -54 3 -4 63 -6 132 -6 96 0 128 4 135 14 15
24 5 42 -27 51 -29 7 -34 17 -103 195 -139 361 -154 398 -160 404 -10 11 -44
16 -73 12z m30 -255 c64 -165 68 -148 -37 -148 -50 0 -91 3 -91 7 0 8 84 243
87 243 1 0 19 -46 41 -102z"/>
<path d="M362 2428 c-23 -23 -14 -47 21 -56 31 -8 32 -10 32 -58 -1 -60 -14
-260 -20 -294 -2 -14 -7 -56 -11 -95 -3 -38 -8 -72 -11 -75 -2 -2 -18 -9 -36
-15 -33 -10 -53 -54 -25 -56 7 0 54 -1 103 -2 75 -2 93 1 108 16 26 26 17 41
-32 51 -42 9 -42 10 -37 45 3 20 8 65 11 101 3 36 8 83 10 105 2 22 7 74 10
115 3 41 7 76 8 77 3 2 58 -146 139 -372 47 -133 50 -138 70 -141 27 -4 44 18
66 81 88 262 145 421 153 430 5 5 9 -12 10 -45 1 -30 2 -66 3 -80 2 -14 6 -65
10 -115 4 -49 9 -116 12 -147 6 -56 5 -58 -18 -58 -13 0 -29 -5 -36 -12 -16
-16 -15 -48 1 -49 45 -4 238 1 247 6 5 3 10 17 10 30 0 20 -7 25 -35 31 -29 5
-35 11 -36 33 -1 14 -3 35 -4 46 -2 11 -6 67 -9 125 -4 58 -9 116 -11 130 -2
14 -7 62 -10 107 -6 82 -6 82 20 89 24 6 45 30 45 54 0 7 -37 10 -116 8 l-116
-3 -45 -130 c-24 -71 -57 -168 -72 -213 -16 -46 -31 -80 -34 -75 -10 16 -147
400 -147 412 0 16 -212 15 -228 -1z"/>
<path d="M2092 2423 c-20 -36 -9 -53 36 -53 26 0 24 22 24 -250 0 -305 3 -277
-31 -283 -27 -6 -51 -40 -38 -54 9 -8 235 -9 257 -1 20 7 28 42 11 52 -5 4
-21 7 -35 8 -14 1 -27 7 -29 13 -6 21 -2 195 6 195 4 0 24 0 46 0 l38 0 47
-96 c75 -156 154 -213 242 -175 l42 19 -64 66 c-35 36 -82 97 -104 135 l-41
69 49 49 c38 38 52 61 60 97 15 70 -2 129 -50 173 -47 45 -82 51 -275 53 -165
1 -183 -1 -191 -17z m336 -72 c42 -23 55 -124 23 -177 -22 -36 -73 -58 -118
-50 -15 2 -33 5 -38 5 -7 1 -10 43 -10 113 0 111 0 112 25 119 34 8 93 4 118
-10z"/>
<path d="M2852 2428 c-22 -22 -13 -45 21 -54 l32 -10 3 -260 2 -260 -32 -9
c-26 -8 -33 -16 -33 -34 0 -24 1 -24 110 -26 123 -2 150 4 158 34 6 24 -1 30
-37 33 -14 1 -27 5 -27 8 -1 3 -3 120 -3 260 l-2 255 30 11 c19 7 32 20 37 37
l7 27 -127 0 c-85 0 -131 -4 -139 -12z"/>
<path d="M3292 2410 c-10 -29 -10 -29 31 -37 l42 -9 0 -259 0 -259 -36 -9
c-28 -6 -38 -15 -42 -33 -5 -27 -14 -25 123 -28 103 -1 120 4 120 40 0 19 -6
24 -25 25 -14 1 -29 3 -35 4 -5 1 -14 3 -20 4 -6 1 -10 77 -10 207 l0 206 38
-49 c20 -26 44 -58 52 -70 8 -12 71 -98 140 -192 129 -176 142 -187 199 -172
l26 7 3 291 2 290 40 12 c33 10 40 16 40 37 l0 25 -117 -3 -117 -3 -7 -27 c-7
-26 -5 -28 29 -34 21 -3 43 -7 50 -9 9 -3 12 -53 12 -205 0 -110 -1 -200 -3
-200 -4 0 -268 355 -317 428 l-35 51 -87 1 -86 0 -10 -30z"/>
<path d="M4146 2424 c-12 -31 -6 -44 27 -52 l32 -8 1 -258 1 -257 -34 -14
c-24 -10 -33 -20 -33 -37 l0 -23 248 1 c136 1 252 2 257 3 6 0 10 33 10 77 0
69 -2 78 -23 92 -29 19 -38 8 -48 -55 -4 -30 -11 -43 -23 -44 -20 -1 -106 3
-146 6 -16 2 -40 3 -52 4 -22 1 -23 4 -23 111 l0 111 77 -3 77 -3 8 -32 c9
-35 28 -42 51 -18 20 20 18 162 -3 175 -26 17 -40 11 -46 -20 -7 -32 -6 -32
-109 -32 -19 0 -39 1 -45 1 -6 1 -10 43 -10 106 l0 105 43 1 c23 0 70 3 104 5
l62 4 12 -40 c11 -36 41 -61 56 -46 3 3 6 38 6 78 l0 73 -235 3 c-208 2 -236
1 -242 -14z"/>
<path d="M253 1663 c-3 -6 -3 -16 0 -20 3 -4 997 -8 2209 -8 l2203 0 3 20 3
21 -2207 0 c-1751 0 -2207 -3 -2211 -13z"/>
<path d="M3147 1613 c-1 -1 -587 -3 -1302 -4 -715 -2 -1305 -5 -1312 -7 -6 -2
-10 -11 -9 -20 3 -15 22 -17 168 -20 l165 -2 23 -58 c103 -251 219 -424 407
-610 62 -61 129 -122 147 -135 182 -124 241 -157 375 -211 262 -106 588 -153
829 -119 208 29 396 85 577 173 397 194 649 469 824 900 l23 55 139 -3 c76 -1
140 1 140 5 6 36 5 53 -5 55 -16 2 -1187 3 -1189 1z m288 -82 c-45 -87 -216
-271 -320 -345 -125 -89 -330 -173 -469 -194 -28 -4 -118 -7 -201 -6 -120 1
-167 5 -235 23 -234 61 -399 154 -569 321 -48 48 -171 202 -171 216 0 8 282
11 989 11 l990 0 -14 -26z m-1988 -50 c7 -1 18 -12 25 -25 32 -58 165 -196
268 -277 140 -111 346 -202 514 -229 38 -6 127 -11 198 -11 391 1 703 154 930
456 33 44 68 82 77 85 13 4 412 5 498 1 29 -1 30 2 -73 -201 -95 -188 -310
-416 -520 -553 -196 -127 -481 -222 -734 -243 -118 -10 -285 -11 -345 -3 -27
4 -68 10 -90 13 -227 29 -560 172 -755 324 -88 69 -256 248 -318 339 -51 75
-172 297 -172 316 0 3 8 7 17 9 14 2 442 2 480 -1z"/>
<path d="M1740 1516 c-83 -36 -114 -38 -155 -10 -26 17 -35 20 -35 9 0 -20 58
-48 97 -47 18 1 60 13 93 27 67 28 73 28 164 -12 67 -29 95 -27 151 12 48 32
69 32 147 -5 70 -33 112 -34 184 -4 62 27 89 26 154 -5 65 -31 96 -30 178 5
62 26 83 26 145 -1 70 -32 110 -30 182 8 62 33 71 33 147 1 78 -33 135 -34
160 -4 10 12 15 27 11 34 -5 7 -9 6 -11 -6 -8 -41 -84 -44 -147 -7 -16 10 -49
21 -72 25 -36 5 -51 1 -97 -25 -71 -39 -98 -41 -168 -8 -70 33 -89 33 -155 3
-79 -37 -104 -38 -170 -5 -65 33 -102 32 -175 -1 -60 -27 -93 -25 -167 11 -74
36 -109 35 -168 -5 -47 -32 -75 -33 -127 -2 -63 37 -102 40 -166 12z"/>
<path d="M1785 1462 c-11 -2 -34 -16 -52 -29 -26 -20 -41 -24 -69 -20 -30 5
-34 4 -24 -8 18 -22 61 -18 100 8 54 37 62 37 131 6 77 -34 110 -36 185 -8 71
27 92 27 150 0 59 -28 126 -29 184 -2 60 27 90 26 153 -5 65 -33 115 -34 187
-1 61 27 82 26 140 -3 53 -27 80 -25 161 11 77 33 95 33 175 -3 25 -10 55 -18
67 -15 21 3 21 4 2 11 -171 66 -170 66 -276 16 -38 -18 -67 -26 -78 -21 -9 4
-34 16 -56 26 -51 23 -91 22 -141 -3 -72 -36 -98 -37 -169 -3 -74 36 -106 38
-169 11 -64 -27 -112 -27 -171 -1 -64 28 -88 29 -158 2 -72 -26 -107 -27 -160
0 -55 27 -87 36 -112 31z"/>
<path d="M2376 1337 l-78 -31 -67 24 c-80 29 -123 29 -186 1 -60 -26 -66 -26
-159 4 -42 14 -89 25 -105 25 -32 0 -81 -33 -64 -43 6 -4 16 0 23 8 17 21 60
19 128 -5 90 -33 124 -34 179 -10 60 27 117 28 168 4 53 -25 117 -22 187 9 66
30 96 28 152 -11 51 -35 103 -35 178 1 31 15 64 27 73 27 8 0 40 -13 71 -29
62 -34 97 -34 171 -1 69 30 109 35 139 15 31 -20 45 -12 21 13 -26 25 -91 21
-171 -12 -76 -31 -108 -30 -156 4 -50 35 -82 36 -156 1 -82 -38 -107 -39 -163
-1 -24 17 -49 31 -55 31 -6 1 -20 3 -31 4 -12 1 -56 -12 -99 -28z"/>
<path d="M1780 1260 c0 -5 13 -10 29 -10 16 0 53 -11 83 -25 65 -30 96 -31
154 -4 63 28 107 30 152 8 63 -33 101 -33 191 -5 99 31 110 32 164 5 52 -27
99 -27 157 0 62 28 125 27 175 -4 51 -31 71 -31 158 0 39 14 77 23 85 20 8 -3
12 0 9 7 -6 18 -61 12 -115 -12 -57 -26 -87 -25 -125 2 -48 34 -120 36 -198 4
-36 -14 -68 -26 -72 -26 -4 0 -31 11 -61 25 -68 31 -77 31 -173 0 -96 -30
-122 -31 -176 -4 -55 29 -110 28 -172 -1 -59 -27 -82 -26 -153 6 -54 25 -112
32 -112 14z"/>
<path d="M2089 1190 c-14 -4 -38 -15 -52 -25 -15 -9 -36 -15 -47 -12 -13 3
-20 0 -20 -9 0 -21 39 -17 94 11 55 28 70 26 156 -13 73 -33 114 -33 168 3 59
39 131 40 186 2 46 -32 66 -33 125 -6 73 32 99 32 169 -1 57 -27 92 -31 92 -9
0 4 -6 6 -14 3 -8 -3 -36 6 -62 20 -79 40 -96 41 -183 10 l-78 -28 -48 32
c-41 27 -55 31 -96 27 -30 -2 -70 -15 -102 -34 -60 -34 -82 -34 -156 3 -55 28
-97 36 -132 26z"/>
<path d="M2094 1096 c-16 -12 -13 -14 27 -13 26 1 70 -10 111 -26 79 -32 97
-33 148 -7 22 11 55 20 74 20 19 0 55 -9 81 -20 26 -11 57 -20 69 -20 13 0 49
9 81 20 32 11 76 20 97 20 24 0 37 4 33 10 -10 17 -73 11 -141 -12 l-64 -23
-62 23 c-76 27 -120 27 -173 2 -52 -25 -64 -25 -135 5 -74 31 -122 38 -146 21z"/>
<path d="M1219 1414 c-9 -11 -10 -20 -2 -32 15 -24 44 -27 59 -7 28 38 -27 75
-57 39z"/>
<path d="M3622 1418 c-26 -26 1 -65 38 -53 16 5 20 14 18 33 -3 30 -35 41 -56
20z"/>
<path d="M3493 1316 l-32 -44 26 -18 c14 -11 30 -24 37 -30 19 -18 66 -47 70
-43 19 23 66 94 66 101 0 20 -18 5 -39 -32 -25 -45 -31 -47 -54 -22 -15 16
-15 20 3 47 29 44 23 55 -9 17 -19 -22 -33 -30 -44 -26 -22 8 -21 16 4 58 29
50 11 44 -28 -8z"/>
<path d="M1268 1316 c-32 -17 -58 -37 -58 -43 0 -18 9 -16 67 16 l51 28 -35
-63 c-41 -76 -36 -82 57 -60 l63 15 -41 -42 c-39 -40 -53 -67 -34 -67 4 0 32
24 61 54 60 61 61 82 2 71 -20 -4 -47 -9 -61 -11 -14 -3 -31 -7 -38 -9 -13 -5
-2 17 46 92 16 25 10 54 -10 52 -7 -1 -39 -16 -70 -33z"/>
<path d="M3412 1210 c-45 -47 -49 -105 -9 -138 39 -33 95 -18 135 38 33 44 21
47 -21 5 -38 -38 -61 -43 -95 -19 -30 21 -29 65 4 104 35 41 24 50 -14 10z"/>
<path d="M1432 1119 c-28 -28 -52 -56 -52 -62 0 -16 79 -81 87 -73 4 4 -9 19
-28 35 -34 29 -34 29 -15 50 l19 21 29 -27 c36 -34 50 -22 14 13 -25 26 -25
28 -9 46 16 18 17 18 45 -9 15 -14 31 -24 34 -20 6 6 3 10 -47 54 l-24 22 -53
-50z"/>
<path d="M3306 1102 c-9 -15 98 -127 113 -118 8 6 -3 24 -41 64 -59 63 -64 67
-72 54z"/>
<path d="M3273 1072 c-9 -6 -8 -23 8 -71 10 -35 17 -66 15 -69 -3 -2 -31 12
-62 32 -31 19 -61 33 -66 30 -14 -9 0 -22 70 -63 90 -55 100 -46 69 66 -15 58
-26 80 -34 75z"/>
<path d="M1540 1023 c-50 -42 -34 -97 43 -147 38 -25 34 -11 -8 28 -38 36 -44
68 -20 100 20 26 69 25 98 -2 25 -24 37 -28 37 -13 0 16 -53 49 -88 54 -25 4
-39 -1 -62 -20z"/>
<path d="M1682 909 c-43 -64 -47 -105 -6 -53 l24 29 37 -20 c21 -10 39 -20 41
-21 2 -1 -4 -17 -13 -34 -20 -39 -6 -63 17 -28 28 44 60 119 54 126 -4 3 -17
-6 -29 -22 l-23 -28 -37 22 c-36 22 -37 23 -22 46 8 13 15 28 15 34 0 24 -20
6 -58 -51z"/>
<path d="M3115 953 c-11 -2 -31 -12 -45 -23 l-25 -19 36 -70 c26 -51 39 -67
49 -61 11 7 10 13 -5 36 -17 26 -17 28 0 41 16 11 24 10 53 -7 41 -24 65 -15
31 11 -13 10 -29 19 -35 19 -6 0 -9 12 -6 29 4 32 -17 50 -53 44z m35 -42 c0
-10 -11 -26 -25 -35 -23 -15 -25 -15 -35 5 -17 30 -5 49 30 49 23 0 30 -5 30
-19z"/>
<path d="M2963 877 c-24 -11 -43 -24 -43 -28 0 -4 13 -37 30 -73 l29 -67 38
17 c21 9 44 18 51 21 6 3 12 9 12 14 0 5 -18 2 -40 -7 -45 -18 -45 -18 -54 13
-6 18 -1 25 23 38 43 22 39 38 -5 18 -31 -15 -36 -15 -44 -3 -15 23 -12 28 20
45 17 9 30 20 30 25 0 12 4 13 -47 -13z"/>
<path d="M1867 809 c-58 -53 -68 -69 -42 -69 8 0 15 4 15 9 0 16 29 20 60 10
24 -9 30 -17 30 -39 0 -16 7 -30 15 -34 14 -5 15 5 11 77 -2 45 -5 85 -5 90
-2 18 -30 3 -84 -44z m63 -9 c0 -38 -1 -39 -25 -28 l-24 11 22 28 c12 15 23
28 25 28 1 1 2 -17 2 -39z"/>
<path d="M2833 830 c-12 -5 -26 -18 -32 -28 -15 -28 6 -49 54 -57 21 -3 43
-11 47 -18 12 -18 -31 -49 -59 -44 -15 3 -22 0 -20 -7 5 -14 56 -9 85 10 24
16 29 46 10 62 -7 5 -31 12 -53 16 -22 3 -41 5 -42 6 -2 0 -3 7 -3 16 0 9 14
21 30 27 17 6 30 15 30 19 0 10 -19 9 -47 -2z"/>
<path d="M2031 797 c-5 -13 -16 -47 -25 -75 -12 -42 -12 -52 -2 -52 7 0 19 21
26 48 7 26 15 51 18 56 3 4 18 -22 34 -60 26 -62 46 -89 56 -79 3 2 12 38 22
79 14 60 15 76 5 76 -8 0 -19 -25 -27 -62 l-13 -63 -30 78 c-30 79 -49 95 -64
54z"/>
<path d="M2201 704 c-7 -42 -10 -78 -8 -81 13 -12 25 10 31 59 4 29 10 63 13
76 3 15 1 22 -10 22 -10 0 -18 -21 -26 -76z"/>
<path d="M2615 722 c11 -104 7 -97 60 -95 26 1 53 7 59 13 8 10 0 11 -36 6
l-47 -7 -5 35 c-4 20 -8 52 -11 71 -10 61 -27 41 -20 -23z"/>
<path d="M2312 759 c-53 -16 -68 -79 -29 -123 24 -28 91 -42 117 -26 8 5 13
10 10 10 -3 1 -25 2 -49 4 -48 3 -82 32 -76 64 2 9 4 20 4 24 3 21 37 38 79
38 34 0 43 3 32 10 -18 12 -44 11 -88 -1z"/>
<path d="M2494 762 c-7 -4 -19 -29 -28 -56 -9 -26 -21 -57 -27 -68 -8 -14 -8
-23 0 -31 8 -8 14 -2 21 20 9 26 16 30 50 31 28 1 40 -2 40 -12 0 -16 28 -41
37 -33 6 7 -50 122 -71 144 -6 7 -16 9 -22 5z m36 -79 c0 -7 -11 -13 -25 -13
-29 0 -28 -2 -14 40 l12 33 13 -24 c7 -13 13 -30 14 -36z"/>
<path d="M750 1342 c0 -13 -77 -45 -89 -38 -14 9 26 -85 45 -104 11 -11 17
-11 26 -2 9 9 8 12 -5 12 -9 0 -23 13 -32 29 -14 28 -14 30 6 36 23 8 42 -11
34 -32 -2 -7 2 -13 10 -13 19 0 19 4 0 40 -15 28 -14 30 4 30 24 0 45 -25 37
-45 -3 -9 0 -15 9 -15 20 0 19 2 -10 60 -24 47 -35 60 -35 42z"/>
<path d="M4166 1308 c-28 -39 -17 -88 19 -88 24 0 55 29 55 51 -1 10 -3 9 -11
-3 -12 -22 -42 -23 -59 -2 -11 12 -10 18 5 32 17 16 17 16 11 -13 -7 -28 -6
-29 7 -10 7 11 17 28 20 38 10 26 -28 22 -47 -5z"/>
<path d="M4112 1199 c-30 -27 -30 -77 1 -88 31 -12 43 -5 61 34 22 46 20 56
-4 18 -21 -36 -41 -41 -60 -18 -15 18 -6 45 14 45 18 0 30 16 18 24 -5 3 -19
-4 -30 -15z"/>
<path d="M771 1173 c-13 -12 -28 -20 -32 -17 -14 8 -10 -10 6 -32 8 -10 15
-14 15 -7 0 7 10 17 21 24 17 9 25 8 38 -6 15 -15 14 -18 -8 -36 -12 -10 -27
-16 -32 -13 -14 8 -10 -9 6 -30 8 -11 18 -16 22 -13 3 4 3 7 -2 7 -4 0 4 9 19
21 31 25 33 43 6 66 -11 10 -20 25 -20 35 0 26 -13 27 -39 1z"/>
<path d="M4026 1062 c-19 -37 -20 -45 -4 -40 7 3 13 13 13 23 0 10 6 20 13 22
6 3 12 0 12 -6 0 -6 7 -11 16 -11 19 0 15 -31 -5 -38 -10 -3 -12 0 -8 12 4 10
3 15 -3 11 -13 -8 -13 -42 0 -50 5 -3 17 7 27 22 10 15 23 34 30 41 18 18 16
27 -4 29 -10 1 -30 5 -45 8 -23 6 -29 3 -42 -23z"/>
<path d="M3949 1033 c-8 -20 -7 -33 1 -46 6 -10 8 -22 5 -27 -4 -6 2 -10 12
-10 22 -1 55 -24 46 -33 -3 -4 -3 -7 2 -7 9 0 34 31 35 43 0 5 -5 5 -11 2 -17
-11 -50 26 -44 49 6 20 5 20 -6 2 -9 -15 -13 -16 -20 -5 -4 8 -6 24 -2 36 7
32 -5 29 -18 -4z"/>
<path d="M843 1033 c-4 -10 -10 -21 -15 -24 -5 -3 -2 -22 7 -42 13 -31 13 -37
1 -37 -20 0 -37 24 -34 50 2 13 -3 25 -9 27 -23 8 -14 -34 13 -66 42 -51 78
-36 50 21 -22 42 -20 45 8 18 18 -16 30 -20 43 -15 10 5 21 7 26 7 13 -3 7 11
-19 45 -27 36 -61 43 -71 16z m62 -13 c7 -11 -12 -40 -25 -40 -11 0 -21 30
-14 41 7 12 31 11 39 -1z"/>
<path d="M982 961 c2 -7 7 -12 11 -12 12 1 9 15 -3 20 -7 2 -11 -2 -8 -8z"/>
<path d="M937 934 c-11 -14 -25 -23 -33 -20 -19 7 -18 -1 6 -31 14 -18 20 -21
20 -10 0 9 11 24 25 35 20 16 22 22 12 35 -11 14 -14 13 -30 -9z"/>
<path d="M3923 923 c-4 -10 -12 -22 -20 -26 -19 -12 -16 -22 12 -37 14 -7 25
-20 25 -28 0 -12 4 -12 20 3 20 18 28 41 11 31 -4 -3 -17 1 -27 9 -16 12 -17
17 -6 34 15 25 15 31 2 31 -6 0 -14 -8 -17 -17z"/>
<path d="M993 871 c-7 -11 -21 -21 -32 -23 -17 -3 -18 -5 -6 -21 13 -18 14
-18 34 2 17 17 25 19 41 11 19 -10 19 -12 4 -35 -9 -14 -20 -22 -25 -19 -14 8
-10 -9 6 -30 8 -11 15 -15 15 -9 0 5 9 21 20 33 25 29 22 52 -7 65 -13 5 -22
16 -20 24 3 22 -17 23 -30 2z"/>
<path d="M3840 825 c-10 -12 -10 -15 0 -15 21 0 49 -30 43 -46 -7 -19 -23 -18
-48 6 -14 13 -25 16 -35 10 -12 -8 -10 -14 14 -33 28 -23 66 -26 66 -6 0 5 11
19 25 31 27 23 33 41 12 32 -7 -2 -22 4 -32 16 -22 24 -29 25 -45 5z"/>
<path d="M1078 759 c-10 -5 -18 -19 -18 -29 0 -23 37 -60 59 -59 11 0 9 4 -6
11 -15 7 -23 20 -23 36 l0 26 28 -27 c35 -33 42 -34 42 -3 0 38 -49 65 -82 45z
m62 -30 c0 -18 -2 -19 -15 -9 -8 7 -15 16 -15 21 0 5 7 9 15 9 9 0 15 -9 15
-21z"/>
<path d="M3732 717 c-31 -33 -15 -54 29 -38 18 6 34 9 37 7 8 -9 -10 -26 -28
-26 -10 0 -22 -4 -25 -10 -14 -23 35 -8 54 16 26 33 12 61 -21 43 -10 -6 -27
-8 -36 -6 -13 3 -11 7 11 15 29 12 35 22 14 22 -8 0 -23 -10 -35 -23z"/>
<path d="M1173 679 c-13 -5 -23 -17 -23 -28 0 -24 37 -61 59 -60 10 0 8 4 -6
9 -16 7 -23 18 -23 37 l0 27 28 -27 c29 -28 42 -27 42 4 0 25 -49 49 -77 38z
m55 -28 c3 -8 -1 -12 -9 -9 -7 2 -15 10 -17 17 -3 8 1 12 9 9 7 -2 15 -10 17
-17z"/>
<path d="M3606 608 c-22 -31 -20 -55 5 -69 17 -9 26 -7 47 8 14 11 27 26 29
34 3 9 0 8 -10 -3 -8 -10 -24 -18 -35 -18 -25 0 -41 38 -21 51 21 13 34 -3 14
-18 -11 -7 -14 -13 -8 -13 11 0 43 32 43 43 0 17 -50 5 -64 -15z"/>
<path d="M1280 612 c0 -16 -37 -52 -45 -44 -5 4 -5 1 -1 -5 4 -7 17 -18 29
-24 12 -7 19 -8 15 -4 -12 13 11 45 32 45 11 0 20 -5 20 -11 0 -5 5 -7 10 -4
15 9 2 25 -21 25 -10 0 -19 7 -19 15 0 8 -4 15 -10 15 -5 0 -10 -4 -10 -8z"/>
<path d="M3437 564 c-3 -3 10 -28 29 -55 19 -28 32 -54 29 -59 -8 -13 1 -13
26 0 19 11 19 11 -1 32 -24 26 -24 32 -7 47 11 8 18 7 29 -7 9 -9 17 -23 19
-30 4 -10 11 -8 29 8 14 12 19 19 12 15 -7 -4 -21 4 -33 19 -25 31 -36 32 -60
5 l-18 -20 -16 25 c-17 26 -27 31 -38 20z"/>
<path d="M1331 531 c-8 -14 -6 -25 10 -45 11 -14 27 -26 36 -26 11 0 8 5 -8
19 -18 14 -21 23 -13 31 8 8 14 7 24 -5 15 -19 50 -20 50 -2 0 41 -80 63 -99
28z m73 -7 c4 -11 1 -14 -11 -12 -9 2 -18 9 -21 16 -6 18 25 15 32 -4z"/>
<path d="M1540 503 c0 -5 -4 -14 -9 -21 -7 -11 -12 -11 -28 -1 -26 16 -69 4
-76 -20 -6 -23 9 -45 37 -55 19 -6 19 -6 3 12 -21 23 -21 27 -1 46 12 12 20
14 35 5 19 -10 19 -12 5 -34 -20 -31 -20 -55 -1 -55 8 0 14 3 13 8 -1 4 10 30
25 58 14 28 23 54 20 58 -9 8 -23 8 -23 -1z"/>
<path d="M3387 479 c-3 -11 -1 -19 4 -19 5 0 15 -11 21 -25 9 -19 18 -25 37
-23 13 2 26 8 28 15 3 7 -3 10 -15 7 -13 -4 -22 2 -30 20 -7 16 -8 26 -2 26
22 0 8 15 -14 16 -16 1 -26 -5 -29 -17z"/>
<path d="M1644 434 c6 -14 -31 -86 -48 -93 -5 -2 15 -14 45 -26 54 -22 69 -23
69 -4 0 6 -8 8 -18 5 -25 -8 -55 15 -46 37 6 16 9 16 29 3 20 -13 24 -13 29
-1 4 11 -2 15 -19 15 -26 0 -29 7 -19 34 5 13 10 13 27 4 12 -6 25 -16 29 -22
5 -7 8 -6 8 4 0 8 -21 25 -46 37 -34 16 -44 18 -40 7z"/>
<path d="M3300 420 c-10 -6 -11 -10 -2 -10 6 0 12 -9 12 -20 0 -24 -13 -26
-30 -5 -17 20 -30 10 -24 -20 5 -31 1 -31 -25 -4 -12 13 -26 19 -36 15 -13 -5
-9 -12 19 -37 37 -32 56 -31 56 2 0 18 1 19 25 3 27 -18 28 -18 29 43 1 46 -1
48 -24 33z"/>
<path d="M3004 363 c-7 -2 -4 -24 10 -66 12 -34 22 -64 23 -66 2 -2 13 1 25 7
13 6 18 11 11 11 -6 1 -19 25 -28 54 -19 58 -25 66 -41 60z"/>
<path d="M1754 337 c17 -25 17 -26 -10 -40 -21 -11 -23 -15 -10 -20 9 -4 16
-2 16 3 0 19 28 10 33 -10 3 -13 13 -20 29 -20 13 0 18 3 11 8 -19 12 -19 40
2 56 18 14 18 15 3 16 -10 0 -18 -4 -18 -10 0 -5 -4 -10 -10 -10 -5 0 -10 9
-10 20 0 11 -4 20 -9 20 -5 0 -17 3 -26 7 -16 6 -16 5 -1 -20z"/>
<path d="M3123 350 c-51 -20 -54 -90 -4 -90 35 0 60 19 63 48 4 31 -29 53 -59
42z m36 -32 c10 -25 -3 -48 -26 -48 -15 0 -33 38 -26 58 8 20 43 14 52 -10z"/>
<path d="M1864 302 c-6 -4 -14 -17 -18 -29 -9 -27 31 -57 66 -50 21 4 21 4 -3
6 -31 1 -43 24 -29 52 13 24 29 24 46 2 7 -10 16 -14 21 -10 20 21 -56 47 -83
29z"/>
<path d="M2096 296 c7 -18 -15 -99 -30 -108 -7 -5 -6 -8 4 -9 8 0 22 -2 31 -4
11 -2 15 3 12 14 -2 10 0 41 5 69 8 47 8 52 -9 52 -12 0 -16 -5 -13 -14z"/>
<path d="M2163 253 c0 -29 -7 -60 -13 -68 -8 -9 -8 -15 -2 -15 6 0 16 -2 24
-5 10 -4 14 11 16 64 1 48 -2 70 -10 74 -9 3 -13 -11 -15 -50z"/>
<path d="M2772 293 c-18 -4 -21 -7 -12 -18 7 -8 12 -35 13 -60 l2 -46 35 6
c65 12 86 35 58 63 -7 7 -13 22 -13 35 0 17 -6 22 -30 23 -16 1 -40 0 -53 -3z
m52 -40 c-17 -13 -17 -14 9 -17 21 -2 14 -41 -7 -41 -14 0 -20 7 -21 26 -1 14
-5 31 -10 38 -11 18 16 33 33 18 12 -9 11 -13 -4 -24z"/>
<path d="M2950 292 c0 -4 5 -13 12 -20 9 -9 6 -12 -16 -12 -25 0 -27 2 -15 17
12 14 12 16 -1 11 -21 -7 -37 -55 -23 -69 17 -17 63 -14 81 6 16 16 16 16 -4
5 -22 -14 -54 -8 -54 10 0 5 8 10 18 10 9 0 23 4 31 9 12 8 12 12 2 25 -14 17
-31 21 -31 8z"/>
<path d="M1966 258 c-19 -27 -7 -53 30 -62 31 -8 45 -1 16 8 -11 4 -23 13 -26
21 -4 12 2 14 34 9 43 -7 51 3 24 30 -22 23 -60 20 -78 -6z m64 -4 c0 -11 -5
-14 -16 -10 -9 3 -18 6 -20 6 -3 0 -2 5 1 10 10 16 35 12 35 -6z"/>
<path d="M2231 221 c-12 -12 -21 -25 -21 -30 0 -15 42 -41 65 -41 20 1 20 1 0
12 -30 17 -36 32 -17 40 15 6 14 7 -3 8 -18 1 -19 1 -2 11 21 12 38 4 30 -16
-3 -8 0 -15 6 -15 12 0 27 27 20 35 -2 2 -16 6 -31 10 -19 5 -32 1 -47 -14z"/>
<path d="M2607 222 c-44 -49 16 -98 69 -56 18 15 18 15 -3 5 -32 -16 -53 -4
-53 31 0 23 4 29 18 26 9 -2 16 -10 15 -16 -2 -7 6 -12 17 -12 24 0 25 4 4 24
-21 21 -47 20 -67 -2z"/>
<path d="M2348 204 c2 -12 -1 -30 -6 -41 -9 -17 -8 -19 11 -18 18 1 21 7 19
32 -2 21 2 32 13 37 26 10 37 -4 33 -40 -3 -27 0 -34 13 -34 21 0 33 16 19 25
-6 4 -8 11 -5 16 4 5 4 18 0 29 -5 15 -15 19 -54 18 -44 -1 -47 -3 -43 -24z"/>
<path d="M2489 214 c-21 -26 -19 -43 7 -60 25 -17 74 -12 74 7 0 8 -4 8 -14 0
-26 -22 -69 19 -51 49 9 14 42 12 48 -2 2 -7 8 -10 12 -6 13 12 -6 28 -34 28
-16 0 -35 -7 -42 -16z"/>
</g>
</svg>
