<?xml version="1.0" encoding="UTF-8"?>
<svg version="1.1" viewBox="0 0 2048 1904" width="1280" height="1280" xmlns="http://www.w3.org/2000/svg">
<path transform="translate(0)" d="m0 0h2048v1904h-2048z" fill="#FEFEFD"/>
<path transform="translate(1428,1221)" d="m0 0h257v22h-97l-3 10-11 28-13 29-12 24-14 24-14 22-12 17-13 17-11 13-9 11-7 7-7 8-20 20-8 7-14 12-16 13-19 14-21 14-21 13-26 14-24 12-38 16-37 13-43 12-38 8-40 6-22 2h-38l-35-2-36-4-36-6-36-8-40-12-32-12-25-11-30-15-24-14-23-15-18-13-18-14-14-12-11-10-8-7-23-23-7-8-9-10-9-11-12-15-14-19-14-21-12-19-14-25-12-23-11-24-10-26-3-8-89-1-24-1v-15l60-1 277-1 431-1z" fill="#FEFEFD"/>
<path transform="translate(1048,104)" d="m0 0h8l8 4 4 4 13-1 11 2 7 4 4 5 2 7 8-2h7l7 3 4 8 1 4 13 2 6 4 4 8v10l-1 3 7 1 5 6 1 2v16l-2 9 5 2 5 8 1 3v8l-3 7-3 5 1 4 4 7v6l-5 10-4 5 6 2 6 4 5 8 1 3v9l-3 8-4 6-8 7-7 3-6 1h-80l3 101 1 44 1 11 7 7 4 8 5-1 3-1h8l5 3 5 8 2 6 7-2 8 1 7 6 4 9 1 6h10l8 4 4 6 2 8v7h8l6 4 5 8 2 7v6l7 2 5 5 4 9 1 13v2l8 2 4 6 1 4v21l3 2 6-1 14-7 11-8 10-9 7-7 9-13 8-15-12 6-9 2h-15l-9-1 2-4 12-12 9-11 9-10 10-14 11-16 15-25 14-26 6-12h3l8 18 6 19 5 26 3 33v44l-2 28-1 3-9-1-8-5-4-6-2-6v-7h-7l-10 21-11 16-12 13-1 2h-2v2l-8 7-10 9-16 12-19 13-3 4 1 4 4 8 1 5-3 7-7 8-1 3 4 4 2 4v6l-6 10-6 5 1 7v13l-3 6-6 5-7 2 1 4v10l-4 6-6 5-10 4-4 1 1 10-5 8-10 5-9 1v7l-3 6-7 6-7 2-11 1-2 7-6 5-8 2-11-1v6l-4 6-6 3h-13l-14-3-2 5-4 3-10 1-14-4-6 1-7 4-10 1-10-4-6-6-6 1-3 1h-7l-7-3-6-8-2-4-13 1-8-4-6-10-1-6-6 2h-9l-6-3-4-5-3-10v-6h-10l-6-3-4-6v-13l-8-1-6-4-5-8-1-4v-18l-10-5-4-6-1-10 4-13-5-2-4-6-1-7 3-12 4-10 1-14-10-8-12-9-14-12-15-14-7-8-11-12-13-17-14-21h-3l-3 11-3 12-4 3-9-1-2-1-2-15-1-12v-47l2-23 6-33 7-25 8-20 2-1 3 16 7 19 11 21 15 22 11 14 9 11 11 12 7 8 9 9v2l-6 1h-14l-16-2-5-2 7 14 9 12 8 9 13 10 19 10 18 6 22 4 10 1h23l20-2 15-4 14-7 11-10 7-10 6-14 4-17 1-13 2-61v-18l-7-9-14-8-5-6-2-4-12-2-6-3-6-7-3-10-10-2-6-4-4-8-2-12-9-3-7-6-3-9-1-8-10-5-4-7-1-10 1-7-10-6-4-6-1-3v-11l1-8-6-7-2-5v-8l5-14-6-5-3-5v-10l4-8 4-4-1-4-3-3-1-3v-10l4-8 8-9-5-8-1-6 4-8 9-8 2-2-2-5 2-10 5-6 5-3 1-2 2-13 6-7 7-3 12-1h2l3-10 8-7 9-2h11l2 2 4 17 6 16 7 12 11 12 10 6 13 5-1-11-11-4-8-4-5-5-1-6 2-3v-3l-3-3-4-10-7-25v-2l15-1 5-7 7-5 9-1 8 3 4 1 10-5z" fill="#AF913C"/>
<path transform="translate(1428,1221)" d="m0 0h257v22h-97l-3 10-11 28-13 29-12 24-14 24-14 22-12 17-13 17-11 13-9 11-7 7-7 8-20 20-8 7-14 12-16 13-19 14-21 14-21 13-26 14-24 12-38 16-37 13-43 12-38 8-40 6-22 2h-38l-35-2-36-4-36-6-36-8-40-12-32-12-25-11-30-15-24-14-23-15-18-13-18-14-14-12-11-10-8-7-23-23-7-8-9-10-9-11-12-15-14-19-14-21-12-19-14-25-12-23-11-24-10-26-3-8-89-1-24-1v-15l60-1 277-1 431-1zm-896 45 1 6 10 23 10 21 12 22 12 20 14 21 8 11 13 17 11 13 12 14 12 12 6 7 8 7 7 7 8 7 13 11 17 13 18 13 22 14 15 9 32 17 17 8 29 12 28 10 29 9 32 8 38 7 25 3 14 1h59l42-3 32-4 34-6 33-8 31-9 32-12 25-11 17-8 22-12 23-14 16-11 19-14 16-13 10-9 8-7 10-9 20-20 7-8 9-10 20-25 12-17 14-21 12-20 13-24 11-23 9-22v-3h-182l-16 24-14 19-12 14-11 12-19 19-8 7-15 12-18 13-26 16-30 15-28 11-25 8-30 7-25 4-36 3h-57l-29-3-27-5-24-6-21-7-25-10-27-13-28-17-16-11-12-9-10-8-11-9-13-12-28-28-11-14-12-15-10-13-3-4z" fill="#FEFEFD"/>
<path transform="translate(1428,1221)" d="m0 0h257v22h-97l-3 10-11 28-13 29-12 24-14 24-14 22-12 17-13 17-11 13-9 11-7 7-7 8-20 20-8 7-14 12-16 13-19 14-21 14-21 13-26 14-24 12-38 16-37 13-43 12-38 8-40 6-22 2h-38l-35-2-36-4-36-6-36-8-40-12-32-12-25-11-30-15-24-14-23-15-18-13-18-14-14-12-11-10-8-7-23-23-7-8-9-10-9-11-12-15-14-19-14-21-12-19-14-25-12-23-11-24-10-26-3-8-89-1-24-1v-15l60-1 277-1 431-1zm-608 20-114 1 7 12 14 19 14 18 10 11 7 8 26 26 8 7 15 12 19 14 19 12 29 16 27 12 28 10 23 7 28 6 26 4 32 2 36-1 30-3 28-5 27-7 23-8 23-10 19-9 24-14 19-13 13-10 11-9 10-9 8-7 26-26 9-11 7-8 11-15 18-27 2-4-467-1zm-288 25 1 6 10 23 10 21 12 22 12 20 14 21 8 11 13 17 11 13 12 14 12 12 6 7 8 7 7 7 8 7 13 11 17 13 18 13 22 14 15 9 32 17 17 8 29 12 28 10 29 9 32 8 38 7 25 3 14 1h59l42-3 32-4 34-6 33-8 31-9 32-12 25-11 17-8 22-12 23-14 16-11 19-14 16-13 10-9 8-7 10-9 20-20 7-8 9-10 20-25 12-17 14-21 12-20 13-24 11-23 9-22v-3h-182l-16 24-14 19-12 14-11 12-19 19-8 7-15 12-18 13-26 16-30 15-28 11-25 8-30 7-25 4-36 3h-57l-29-3-27-5-24-6-21-7-25-10-27-13-28-17-16-11-12-9-10-8-11-9-13-12-28-28-11-14-12-15-10-13-3-4z" fill="#AF913D"/>
<path transform="translate(338,941)" d="m0 0h68l2 1 20 56 18 50 14 39 2-3 18-52 21-61 10-28 1-1 17-1h57l3 1v7l-3 9-10 4-10 2 13 163 2 13 24 7-2 12-4 7-7 1h-70l-11-1 1-12 3-5 20-7-5-64-7-89-5 12-12 36-11 31-11 33-12 34-9 26-4 4-4 2h-12l-3-3-11-30-22-61-23-63-6-17v-3h-2l-1 18-12 133 13 2 14 3 2 3-2 10-4 7-6 1h-51l-19-1v-7l3-9 9-4 14-4 1-1 16-174-18-4-7-2v-8l4-9 2-2z" fill="#104996"/>
<path transform="translate(926,941)" d="m0 0h99l16 1 14 3 12 5 10 7 10 10 8 16 3 14v10l-3 15-5 12-7 11-11 11-10 7-4 2 2 5 11 19 14 21 13 17 12 13 11 11 8 6v2l-16 8-9 3h-14l-13-5-11-8-9-9-10-14-9-15-11-23-8-20-2-1-22-2-9-2v71l13 2 12 3v9l-5 10-7 1h-66l-16-1-1-2 2-11 5-5 14-5h3v-175l-8-3-14-4-1-1 1-10 4-8z" fill="#104996"/>
<path transform="translate(295,1200)" d="m0 0h1502v15l-1 1h-1481l-21-1v-14z" fill="#AF913D"/>
<path transform="translate(1335,941)" d="m0 0h53l5 5 10 14 28 38 13 18 12 16 13 18 12 16 28 38 1-137-9-1-22-5-1-4 3-10 3-5 3-1h72l4 1-2 13-3 4-22 7-1 192-5 6-8 3h-17l-6-2-9-11-12-17-14-19-13-18-28-38-11-15-13-18-9-12-11-15v138l28 6 3 2-2 11-4 6-5 2h-56l-17-1v-8l3-8 9-4 14-4v-175l-26-6v-7l3-9 2-3z" fill="#104996"/>
<path transform="translate(757,936)" d="m0 0 14 1 4 4 8 20 19 49 22 57 19 49 8 20 3 5 15 4 7 2-1 9-4 8-2 2-5 1h-67l-16-1 1-11 3-6 19-7-3-10-13-33-1-2-82-1-3 10-11 30v4l26 6 2 1v8l-5 10-5 2h-56l-12-1v-8l3-8 8-4 9-4 5-11 14-39 21-57 18-50 11-30 4-10 5-5 9-3z" fill="#104996"/>
<path transform="translate(1622,941)" d="m0 0h157l1 1v53h-7l-8-3-4-6-6-18-1-2h-17l-52 4-1 71 51-1 6-21 4-1 13 4 3 3v55l-5 4-11 3-4-1-6-21-51-1 1 73 78 6 4-19 4-17 1-2 8 1 10 4 1 1v55l-7 1-169-1v-8l3-8 8-4 12-4v-176l-8-1-14-4-1-1 1-10 5-8z" fill="#104996"/>
<path transform="translate(1182,727)" d="m0 0h2l-2 7-1 18-5 6-1 3v15l-8 3-3 6-1 10-12 4-5 5-2 5-1 9-2 1-9 1-6 4-4 10-14 1-5 3-4 10h-13l-7 3-4 9-10-3h-10l-5 3-3 3-5-2-11-3-11 1-6 1-7-9-2-1h-10l-6 2-5-8-2-1h-8l-3 1-5-12-4-3-8-1-5-1-1-11-4-6-6-3-7-2-2-11-4-6-4-2-6-1v-13l-4-9-4-3 1-8v-10l-3-3-3-2 2-7 10 2 31 8 26 9 18 8 17 9 16 12 8 8 7 11 3 8v6h13l1-5 7-14 7-9 9-10 13-10 15-8 21-7 19-5 31-13z" fill="#FEFEFD"/>
<path transform="translate(1036,501)" d="m0 0 4 1 5 9 7 5v240h-13l-3-16-6-12-6-7-14-7-10-2-24-2-34-5-28-7-23-8-20-9-20-11-17-12-14-12-11-11-7-8-10-14-9-15-9-20-6-18-4-17v-5l3 4 8 18 6 12 12 19 12 16 12 13 10 10 13 10 15 9 17 8 17 5 21 3h30l18-2 19-4 13-5 11-6 9-8 1-2h2l8 22 7 11 10 6-3-148v-27z" fill="#FEFEFD"/>
<path transform="translate(1044,151)" d="m0 0h2l5 9v92h8l1 2v10l-1 1h-14l1 12h115l5 3 3 3v8l-2 4-5 2-78 1-8 6-5 2-6-1-5-4-3-5v-5h-132l-3-10v-5l4-7 1-4-1-16 5-4 4-8v-19l7-4h2l1-7-3-9 11-6 9-10 5-11 1-4h2l8 14 11 13 10 8 15 8 9 4 1 1v48l-54 1-21 1-11 10v1h102l-1-25-4-85v-7z" fill="#FEFEFD"/>
<path transform="translate(1185,941)" d="m0 0h80l3 1-1 12-2 4-13 5-8 3v174l9 3 15 4-1 10-4 8-1 1-8 1h-30l-50-1 1-11 3-6 17-6h3l-1-176-20-5-3-2 2-11 4-7z" fill="#104996"/>
<path transform="translate(1208,898)" d="m0 0h586v15l-1 1h-584l-1-1z" fill="#AF913D"/>
<path transform="translate(759,900)" d="m0 0h90l31 1v15h-585l-1-1v-14z" fill="#AF913D"/>
<path transform="translate(1509,732)" d="m0 0h37l25 70 2 1 3-11 20-58 1-2h39l-1 7-5 3-5 2 1 22 5 59v6l11 2 1 5-3 5h-43l1-7 5-3 5-2-1-18-4-49v-7h-2l-2 9-17 50-9 25-5 3h-5l-4-8-14-39-14-38-1 3-6 69 12 2 2 1-1 6-2 3h-37v-7l9-4 3-2 3-27 5-57-8-3-4-2 1-6z" fill="#104996"/>
<path transform="translate(414,872)" d="m0 0h432l1 1v15h-450v-15z" fill="#AF913C"/>
<path transform="translate(1244,870)" d="m0 0h450v15l-38 1h-409l-3-1z" fill="#AF913D"/>
<path transform="translate(932,316)" d="m0 0h86l1 1v37l-3 86h-2l-3-10-5-6-5-2-8-1-4-12-5-5-10-1-1-11-4-6-8-4-7-1-1-4v-8l-3-6-8-5v-15l-5-8-4-3-4-2 2-13z" fill="#FEFEFD"/>
<path transform="translate(550,728)" d="m0 0h43v6l-3 3-8 4-1 36h46l-1-35-10-4-1-5 3-5h44l1 4-3 5-10 4v85l12 4 1 2-3 7-8 1h-24l-13-1 1-7 10-5 1-38h-46l1 37 11 4-1 7-1 2-7 1h-20l-17-1 1-7 5-3 5-2v-87l-8-1-3-1 1-7z" fill="#104996"/>
<path transform="translate(1091,532)" d="m0 0 3 1 3 9 5 5 2 1h11l4 11 5 6 9 1 3 3 2 9 5 6 10 2 2 14 5 6 7 3v12l3 8 5 5 5 2v16h-30l-11-2-12-5-12-8-12-11-7-10-8-16-4-15-2-15-1-23v-12l7-2z" fill="#FEFEFD"/>
<path transform="translate(734,726)" d="m0 0h13l3 5 19 49 16 41 4 6 9 3-1 7-1 2-10 1h-15l-20-1 1-6 5-4 6-1-8-21v-2h-40l-4 9-4 13 12 2 2 1-1 6-2 3h-36l1-6 3-3 6-3 11-29 9-24 7-20 9-24 3-3z" fill="#104996"/>
<path transform="translate(998,966)" d="m0 0h21l13 4 8 6 6 9 3 8 1 6v13l-3 13-5 9-6 7-12 6-9 2h-14l-14-2-1-1v-77l6-2z" fill="#FEFEFD"/>
<path transform="translate(1307,732)" d="m0 0h82l2 4-3 7-14 23-15 24-14 23-10 16 44 2 5-18 4-1 5 2 1 1v28h-88l-2-2 1-6 12-19 15-24 16-26 11-18 1-3h-22l-18-1-2 9-3 7h-8z" fill="#104996"/>
<path transform="translate(923,1246)" d="m0 0 13 1 13 5 22 11 9 3h15l21-7 19-7 5-1h12l12 4 21 11 6 2h12l18-6 19-8 10-3h16l13 5 16 8 7 3 11 1 12-4 27-14 9-3h13l14 4 23 11 10 3h12l9-4 4-5 3-4h4l1 5-3 5-8 7-7 3-5 1h-8l-12-3-26-12-9-3h-15l-12 5-19 10-15 5h-11l-12-4-17-9-12-4h-8l-15 4-27 11-8 2h-16l-11-4-21-11-4-1h-13l-17 5-21 8-8 2h-13l-15-5-21-11-13-4h-9l-9 4-18 12-10 4h-12l-18-7-15-8-12-4-13 1-20 8-14 6-7 2h-15l-11-4-11-8-4-5v-5l4-1 10 10 11 5 11 1 12-3 18-8 13-5 4-1h15l14 5 19 10 9 3h13l11-6 13-9 9-4z" fill="#BE9632"/>
<path transform="translate(470,726)" d="m0 0h19l16 4 8 4-3 26-7-1-3-3-2-13-9-4-12-1-9 3-4 5-1 9 3 6 11 7 17 8 11 7 6 5 4 6 3 10v8l-2 8-4 8-7 7-11 5-11 2h-9l-18-3-15-5-2-3 4-24 1-3 3-1h7l1 1 1 17 4 4 9 3 5 1h8l7-2 5-4 3-7v-6l-3-5v-2l-4-2-23-12-11-7-8-8-4-10v-14l3-9 8-9 8-4z" fill="#114996"/>
<path transform="translate(1081,640)" d="m0 0 11 7 19 9 18 6 17 4 8 1 30 1v12l4 12-1 4-15 5-39 8-13 2-7-1-9-6-9-9-8-14-4-11-2-12z" fill="#FEFEFD"/>
<path transform="translate(818,1273)" d="m0 0h8l14 4 23 11 12 3h7l15-4 18-7 11-3 13-1 13 4 18 8 12 3h16l17-5 17-7 8-2h11l13 4 25 12 10 3h10l18-6 13-6 12-4 12-1 13 4 19 9 7 2h8l13-4 22-11 13-4h14l16 5 20 8 17 5v5l-4 1-16-4-25-10-12-3-11 1-14 5-21 10-10 3h-12l-10-3-21-10-3-1h-12l-15 5-16 7-12 4h-16l-16-6-16-8-10-4h-16l-14 5-15 6-8 2h-23l-13-4-17-8-6-2h-13l-17 5-19 7-8 2h-14l-10-3-26-12-10-3-9 1-13 7-9 6-10 4h-11l-6-3-3-3 1-5 5 1 7 3 8-1 10-5 14-9z" fill="#BD9533"/>
<path transform="translate(1042,1307)" d="m0 0h17l10 4 25 15 11 2 10-2 12-5 21-10 12-3 11 1 16 8 12 7 10 3h8l14-4 20-8 11-4 9-2h16l10 4 7 6-1 5-5-1-5-4-10-3-14 1-16 5-19 8-13 4h-15l-11-4-21-12-5-2h-11l-15 5-23 11-9 3h-13l-12-5-16-10-12-6h-13l-15 4-23 9-16 4h-8l-13-4-16-7-8-2h-21l-11 3-18 8-6 2h-17l-21-6-19-7-9-2h-14l-11 4-4 3-4-1 1-5 8-6 11-3h10l18 4 25 9 13 3h10l14-5 13-6 12-3h17l13 3 21 9 4 1h12l15-4 23-9z" fill="#BC9534"/>
<path transform="translate(1096,164)" d="m0 0h4l1 9 4 4 13 3-1 4v9l4 5 3 2-1 5-1 3v10l5 7-2 4-4 5-1 2v9l4 5-1 4-7 8-3 4h-42l-1-1v-53l2-2 16-5 16-8 6-5-1-5-7-8-14-11v-2z" fill="#FEFEFD"/>
<path transform="translate(819,1338)" d="m0 0 13 1 19 7 16 7 12 3 11-1 19-10 14-4h20l11 3 22 10 4 1h14l21-6 20-7 13-3h12l13 4 19 9 8 2 10-1 21-9 13-4 5-1h25l13 5 16 9 7 2 10-1 15-5 21-8 5-1h13l3 2-1 4-17 2-17 6-12 5-11 3h-13l-12-5-11-7-8-3-6-1h-14l-16 3-13 5-17 7h-14l-16-7-13-6-4-1h-16l-15 4-29 10-5 1h-20l-12-5-13-6-12-3h-13l-13 3-22 11-8 2-9-1-13-4-20-9-13-4h-14l-2-2 1-4z" fill="#BF9631"/>
<path transform="translate(1427,732)" d="m0 0h44l-1 7-4 3-6 2v86l10 4 1 3-3 6h-43l-1-3 2-5 9-4 1-87-8-1-4-2z" fill="#104996"/>
<path transform="translate(744,989)" d="m0 0 3 1 15 39 16 41v3h-64l1-5 13-36z" fill="#FEFEFD"/>
<path transform="translate(1031,318)" d="m0 0h21v142l-13 1-5-10-1-20-2-90z" fill="#FEFEFD"/>
<path transform="translate(1045,1364)" d="m0 0h23l10 4 17 12 2 1h14l21-9 12-4 5-1h13l12 3 26 13 15 2-1 5-3 2h-8l-11-4-15-9-13-4h-17l-13 4-15 7-10 3h-11l-12-6-14-10-9-2h-11l-14 2-12 5-13 8-8 4-9 2-10-1-15-5-23-11-11-3h-11l-9 2-11 6-10 6-3 1h-10l-6-4v-5l4-1 3 2h9l9-5 10-6 10-3h19l14 5 24 11 10 3h10l12-5 13-8 11-5z" fill="#BD9533"/>
<path transform="translate(1324,537)" d="m0 0h1v12l-4 21-7 21-8 17-9 14-13 16-14 14-17 13-18 11-9-3 4-11 1-7 18-11 11-8 15-14 9-10 11-15 10-16 11-21 7-18z" fill="#FEFEFD"/>
<path transform="translate(664,1311)" d="m0 0h4l4 7-1 5-20 35-2 2 8-1 35-8h5l6 8-6 7-26 26-4 5-4-1-4-6 8-7 24-24-22 6-26 5-5-5 2-6 13-23 7-11 1-3-17 10-20 11-4-4-2-4 18-10 22-11z" fill="#104996"/>
<path transform="translate(926,1395)" d="m0 0h16l14 4 23 9 16 4 11-1 20-9 8-2h21l17 6 18 6h11l17-5 21-7 6-1h11l10 3 2 4-1 2-10-1h-13l-15 4-20 7-10 2h-8l-17-5-15-6-10-2h-9l-12 2-20 9-4 1h-14l-12-3-24-10-10-3-11-1-10 2-4 1-2-2 1-5z" fill="#BD9533"/>
<path transform="translate(1272,1445)" d="m0 0 9 2 5 6 1 8-4 8 9 2 16 12-4 4-5 1-13-10-2-1h-7l-9 4h-2l4 10 6 11v2l-6 3-3-1-8-16-12-22-3-6 1-4 13-8 9-4z" fill="#104996"/>
<path transform="translate(1149,1339)" d="m0 0h25l13 5 16 9 7 2 10-1 15-5 21-8 5-1h13l3 2-1 4-17 2-17 6-12 5-11 3h-13l-12-5-11-7-8-3-6-1h-14l-16 3-13 5-17 7h-14l-16-7-8-4v-2l-10-3-15-2-1-2 8-1 13 2 12 5 13 6 9 3h6l4-1v-2l21-9 13-4z" fill="#BD9533"/>
<path transform="translate(1163,1669)" d="m0 0h14l5 6-1 5-5 6 7 1 5 6v6l-5 6-9 4-17 3h-8l3-3h2l-5-29v-4h-5v-3z" fill="#104996"/>
<path transform="translate(864,1476)" d="m0 0 9 3 3 59-6-1-4-2-1-19-10-3-10-4-4 1-11 10-6-2-2-1 2-4 15-13 16-15z" fill="#104996"/>
<path transform="translate(902,1490)" d="m0 0 9 3 11 27 8 19 1 3 8-36 2-6 7 2-5 27-5 23-1 3-9-2-8-16-10-24-3-10-8 26-4 14-3 1-6-2 3-11z" fill="#114996"/>
<path transform="translate(1055,1510)" d="m0 0h10l11 23 12 22 3 4v3h-9l-5-8-4-7-21 1-3 1-6 15-4 1h-5l1-5 14-35 5-14z" fill="#114996"/>
<path transform="translate(794,1440)" d="m0 0 6 2 1 4-10 15-1 3 5 2 18 10 6 3 2-6 7-13 5 1 2 1-1 6-15 30-7 13-4-1-4-2 1-5 9-17-3-3-18-10-7-4-12 20-4-1-4-2 1-5 10-15 13-20z" fill="#104996"/>
<path transform="translate(730,1594)" d="m0 0 10 4 2 2-1 5-16 29-1 4 4 4h-6l-6-3-1-5-11-2-8-5-3-6 1-8 7-8 3-1h11l8 4 4 3 5-9-1-4z" fill="#114996"/>
<path transform="translate(1052,1366)" d="m0 0h18l11 4 14 10 2 1h14l21-9 12-4 5-1h13l12 3 26 13 15 2-1 5-3 2h-8l-11-4-15-9-13-4h-17l-13 4-15 7-10 3h-11l-12-6-14-10-6-3h-22v-2l-2-1z" fill="#BE9632"/>
<path transform="translate(811,1308)" d="m0 0h10l18 4 25 9 13 3h10l14-5 13-6 12-3h17l13 3 21 9 4 1h17l-3 2h-16l-15-6-13-5-5-1h-15l-6 1 1 1h15l14 3 4 3-9-2-4-1h-21l-11 3-18 8-6 2h-17l-21-6-19-7-9-2h-14l-11 4-4 3-4-1 1-5 8-6z" fill="#BC9534"/>
<path transform="translate(1406,1308)" d="m0 0 5 1 1 2-9 14-6 9 4 4 7 5 3-1 13-19 4-1 2 1-1 4-7 11-6 8v3l12 9h3l17-25h5l-1 5-10 16-10 13-2 3-4-1-16-12-18-14-6-5 6-9 9-13z" fill="#104997"/>
<path transform="translate(501,1413)" d="m0 0h7l9 6 7 12 6 6v4l-4-2-2-2-4 5-2 1h-8l-9-8-3-4-3-1 2 7 6 10 1 3v8l-4 3-8-1-10-9-5-8-2-5v-8l2-2 5 1 2 3-1 5-1 1v6l4 6 5 4 5-1v-6l-7-12-1-7 1-2h7v-9z" fill="#104996"/>
<path transform="translate(714,1373)" d="m0 0 4 2 22 22-1 3-4 1-11-11-2-1v-2h-2l-3-3-2-1-2 4-7 6 1 4 8 8 7 6 1 4-4 2-12-11-6-6-4 2-9 9 2 4 19 19-3 4-4-2-12-11-13-13-1-4 13-12 15-14 7-7z" fill="#104997"/>
<path transform="translate(958,138)" d="m0 0h3l2 9v14l-4 10-6 9-8 7-10 4-10 1-12-1-2-1v-5l7-6 4-1 17-1 5-4 2-6 1-15 3-8 5-5z" fill="#FEFEFD"/>
<path transform="translate(1232,1465)" d="m0 0 2 2v4l-15 7-5 2h-3l6 16 20-8 4-1 2 2v3l-17 8-5 2 1 5 5 12 9-3 18-8h2l1 5-16 8-18 8-3-1-11-28-8-19 1-3z" fill="#104996"/>
<path transform="translate(1324,1404)" d="m0 0h2l11 41 3 13-1 4-5 4h-5l-23-14-23-15v-2l5-4 6 2 15 10 19 12 3 2-11-41-1-8z" fill="#104997"/>
<path transform="translate(1274,1650)" d="m0 0h9l6 3 3 5 1 8-4 8-8 6-6 2h-10l-6-4-3-7 1-8 4-6 5-4z" fill="#104996"/>
<path transform="translate(1378,1349)" d="m0 0h4l1 4-8 7-8 11-2 6v11l5 9 8 5h12l10-5 8-9 6-10 6 2-6 11-9 10-9 7-10 4h-10l-10-5-6-7-3-6-1-11 3-11 5-9 9-10z" fill="#104996"/>
<path transform="translate(743,1415)" d="m0 0h14l12 5 8 6 5 4 3 5-4 3h-2l-7-8-6-4-10-3h-8l-8 4-6 7-2 5v7l3 8 8 9 11 6 4 4-1 3-6-1-11-6-9-8-6-10-2-5v-12l4-8 4-5 6-4z" fill="#104996"/>
<path transform="translate(1184,1485)" d="m0 0h4v6l-2 1-9 1-8 5-1 1v7l4 3 22 2 6 3 4 5 1 2v7l-4 6-8 6-8 3-11 2h-5l-1-1v-5l1-1 13-1 10-4 3-4v-7l-4-3-21-2-8-4-3-5v-8l4-6 9-6z" fill="#104997"/>
<path transform="translate(1e3 1509)" d="m0 0h15l9 3-1 5-8-1h-14l-10 4-6 8-1 3v13l3 6 8 6 8 2h20v5l-9 2h-11l-12-3-8-4-6-7-3-6v-14l4-9 5-6 12-6z" fill="#104996"/>
<path transform="translate(465,1310)" d="m0 0h3l16 33 1 3-6 3-3-1 2-4-1-5-7-13-11 5 1 4 4 9 5 1v4l-6 3-4-1v-3l1-3-5-11-6 2-4 2h-3l5 12 3 9h8v4l-7 4-9-16-11-23v-3h3l2 3 5-1 24-11z" fill="#104996"/>
<path transform="translate(1382,1577)" d="m0 0 4 2 9 14v2l2-1 4-8 6-5 2-1h6l5 5 8 11 5-1v4l-12 8h-2l1-5-8-12-1-1h-6l-5 5-1 3 6 11 1 3h6l-1 3-13 8-2-1 2-6-16-26-2-5-6 1 2-4z" fill="#104996"/>
<path transform="translate(1149,532)" d="m0 0 7 1 6 7 1 3v13l-2 6-1 13-3 3h-8l-4-3-1-38z" fill="#FEFEFD"/>
<path transform="translate(912,281)" d="m0 0 4 2 2 5-1 10-10 14-8 10-5 3-7-6-2-4 1-6 8-10 14-15z" fill="#FEFEFD"/>
<path transform="translate(767,1619)" d="m0 0 17 7 14 6 1 3-4 6-2-1v-6l-10-3-6-1-5 12 5 1 8 2 1-2 3 1-1 6-3 4-3-1-2-4-6-3h-4l-5 12 6 2 8 4 5 1 2-4h3l-2 9-2 1-24-10-11-6v-2h7l3-9 8-17 1-4-3-1z" fill="#104996"/>
<path transform="translate(882,290)" d="m0 0 9 2 3 1 1 4-2 4-6 8-1 6 4 6 4 3 5 1-1 8-2 1 1 5-1 2v6l8 8 3 2 2 6 1 2-4 9h-2l-2-10-10-6-4-6-1-3v-11l1-8-6-7-2-5v-8l5-14-3-4z" fill="#C09631"/>
<path transform="translate(1112,842)" d="m0 0h8l11 5 4 1 16 1 3 5v6l-4 3h-23l-8-5-9-1-4-1-2-3 1-5 5-5z" fill="#FEFEFD"/>
<path transform="translate(1588,1398)" d="m0 0 9 3 9 6h3l2-4 2 2-4 10-6 1-2 9-4 8-4 3h-6l-3-4 2-12 3-6 1-6-8-1-3 5 1 10-3 3-3-2-1-5 5-12 8-7z" fill="#104997"/>
<path transform="translate(478,1363)" d="m0 0h3l5 8-1 5-1 3 4 1 8 7 3 6-1 7-9 7-7 4 1 6-4-1-8-13v-3h2v2l5-1 11-7 1-1v-6l-7-7-5 1-11 7 1 3-2 2-4-5-6-11v-2l4 2 5-1 13-7z" fill="#104996"/>
<path transform="translate(733,752)" d="m0 0 3 3 14 36v2h-31l1-6 12-34z" fill="#FEFEFD"/>
<path transform="translate(1339,1623)" d="m0 0h2v2l-2 1v29l-5 2-10-7-5-3 1 2v13l-4 4-5-2-16-15-6-2 3-3 13-5v3 4l9 9h1v-15l2-4 4 1 12 9 2 1-2-16-5-1 4-4z" fill="#104996"/>
<path transform="translate(1632,1318)" d="m0 0h9l-1 8-8 17v2h7l6-5 3-8 1-9h2l1 9-2 8-4 8-7 7-3 1h-8l-6-5-2-4v-13l3-8 7-7z" fill="#104997"/>
<path transform="translate(974,410)" d="m0 0h5l5 5 2 6v29l-4 5-6 1-4-2-2-4v-35l2-4z" fill="#FEFEFD"/>
<path transform="translate(914,252)" d="m0 0 4 1 1 2v9l-9 10-13 12-4 5h-5l-4-6-1-8 7-8 14-11 7-5z" fill="#FEFEFD"/>
<path transform="translate(1088,857)" d="m0 0 6 1 14 7 14 2 3 4v6l-5 5-2 1h-9l-10-4-14-8-3-4 1-6z" fill="#FEFEFD"/>
<path transform="translate(1119,158)" d="m0 0h24l3 2v6l-6 5h-2v11l-4 6-1 1h-6l-2-2 1-7 4-4 1-5-10 1-9 1-5-2-2-2 1-4 6-5z" fill="#FEFEFD"/>
<path transform="translate(949,837)" d="m0 0h8l4 5 1 2v16l6 13-1 7-4 1-8-4-6-8-3-7-1-6v-10l3-8z" fill="#FEFEFD"/>
<path transform="translate(917,307)" d="m0 0h1l1 8 4 1-1 7-8 21-5 10-3 1-8-4-3-4v-6l7-12 10-15z" fill="#FEFEFD"/>
<path transform="translate(548,1466)" d="m0 0 4 1 6 7-2 5 7 2 8 6 2 3v8l-13 13 1 6-4-2-10-10v-2l5 1 10-9h2l1-6-5-5-4-2-5 1-9 9v5l-4-2-9-11v-2l7 1 11-9 2-5z" fill="#104997"/>
<path transform="translate(1e3 1692)" d="m0 0h11l3 4 9-4h9l4 4 1 3v18l4 1-1 4h-11l-5-1v-2l3-2v-18l-3-2-9 2-2 6v11l3 3-1 2h-11l-6-2 1-2 3-1 1-9v-10l-3-3z" fill="#104996"/>
<path transform="translate(938,361)" d="m0 0 6 2 3 5-2 19-3 18-3 4h-8l-3-3v-10l5-28 3-5z" fill="#FEFEFD"/>
<path transform="translate(1061,864)" d="m0 0 6 1 21 13 7 6 1 6-4 4h-9l-12-6-14-13-2-5 4-5z" fill="#FEFEFD"/>
<path transform="translate(1097,1506)" d="m0 0h6l7 43v4l29-5 1 5-9 3-24 4h-5l-2-11-5-38v-4z" fill="#104996"/>
<path transform="translate(952,392)" d="m0 0h6l5 4 1 3v25l-3 6-4 3h-5l-5-6v-30z" fill="#FEFEFD"/>
<path transform="translate(1030,866)" d="m0 0 6 2 11 9 13 10 5 6-2 6-4 3h-6l-9-6-10-12-9-12 1-4z" fill="#FEFEFD"/>
<path transform="translate(1128,512)" d="m0 0 4 1 4 5 2 5 2 17v13l-4 4-6 1-4-2-2-4v-36z" fill="#FEFEFD"/>
<path transform="translate(1519,1485)" d="m0 0 5 1 7 7 8 6 4-4 1 5-6 7h-7l-1 7-4 6-5 4h-6l-8-7-5-5h-7l3-5 6-5 5 3 9 9 5 1 5-5v-6l-10-10-6 1 2-4z" fill="#104996"/>
<path transform="translate(1220,712)" d="m0 0h7l2 2v8l-3 5-14 8-14 7h-6l-2-2v-7l5-5 17-12z" fill="#FEFEFD"/>
<path transform="translate(580,1509)" d="m0 0h7l8 3 7 8 2 4v6l-3 5-4-1-10-9-4-4-4 1v10l5 5 9 4v2h-6l-10-6-6-8-2-5 1-7 5-6z" fill="#104997"/>
<path transform="translate(610,1537)" d="m0 0h9l8 4 6 7 1 2v8l-2 4-4-1-13-10-1-3-4 1-1 2v7l5 6 11 5-4 2-10-4-8-7-3-6v-8l3-5 4-3z" fill="#104997"/>
<path transform="translate(1446,1555)" d="m0 0 7 1 4 4-2 4-12 10-3 2 2 4 7 1 6-3h2l5-10h2l-1 5-6 9-9 6-3 1h-7l-6-4-3-5v-10l5-8 6-5z" fill="#104996"/>
<path transform="translate(931,816)" d="m0 0 5 1 1 3 1 24 5 10v5l-4 3h-5l-5-5-5-10-2-6v-11l6-12z" fill="#FEFEFD"/>
<path transform="translate(912,796)" d="m0 0 4 1 2 6v32l-3 4h-6l-6-5-1-2v-22l3-8 5-5z" fill="#FEFEFD"/>
<path transform="translate(897,770)" d="m0 0h6l3 3v8l-6 14-1 4-1 13-2 2h-6l-5-6-1-2v-11l5-13 6-10z" fill="#FEFEFD"/>
<path transform="translate(1210,1670)" d="m0 0h8l6 4 3 6-2 2-19 5h-2l3 6 4 2h7l7-4 4-2-1 4-5 4-10 4h-8l-6-3-4-5-1-6 3-9 6-5z" fill="#104997"/>
<path transform="translate(976,1689)" d="m0 0h9l6 3 4 6 1 6h-20l-5-1 2 7 1 3 4 1h11l5-2-2 4-8 3h-9l-9-4-4-6v-9l4-6 6-4z" fill="#104996"/>
<path transform="translate(975,854)" d="m0 0h6l4 5 6 15 10 15-1 5-7 1-11-7-6-9-3-8v-14z" fill="#FEFEFD"/>
<path transform="translate(996,430)" d="m0 0h5l4 6 5 23 1 4v7l-3 3-7 1-5-4-3-9v-28z" fill="#FEFEFD"/>
<path transform="translate(676,1582)" d="m0 0 8 2 8 7 2 3v8l-2 3-5-1-14-9h-3l-1 7 4 6 6 3 7 1-1 3-9-1-8-4-7-8-1-2v-8l3-5 6-4z" fill="#104996"/>
<path transform="translate(886,1675)" d="m0 0h11l7 4 4 7v5l-5 1-20-4 2 8 4 4 10 1 6-1v2l-3 2-11 1-8-2-6-4-3-5v-9l4-6z" fill="#104997"/>
<path transform="translate(1171,558)" d="m0 0 5 1 6 8 1 2v10l-5 14-1 8-4 2-6-1-3-4-1-14 3-7 3-1 1-15z" fill="#FEFEFD"/>
<path transform="translate(1103,1689)" d="m0 0h10l6 4 3 6-1 3-12 2h-11l3 7 5 3h7l8-4h2l-2 4-8 4-4 1h-9l-6-3-5-6v-9l4-6 5-4z" fill="#104996"/>
<path transform="translate(1e3 862)" d="m0 0 6 2 12 15 8 12 1 9-3 2h-6l-6-5-7-11-7-10-2-4v-6z" fill="#FEFEFD"/>
<path transform="translate(931,196)" d="m0 0 5 1 1 2v6l-4 6-4 3-15 2-10 10-4-1-3-4 1-9 4-6 5-3h13l7-3z" fill="#FEFEFD"/>
<path transform="translate(892,742)" d="m0 0 4 1 2 2v9l-10 16-8 10-1 1-7-1-4-5 1-5 14-19 7-8z" fill="#FEFEFD"/>
<path transform="translate(1036,1310)" d="m0 0m-4 1h4v3l-6 2v2l-23 9-16 4h-8l-13-4-11-5v-2l-11-3-7-1h-16l-1-3 7-1h15l13 4 20 8h19v-2l18-6 7-3z" fill="#BF9632"/>
<path transform="translate(926,339)" d="m0 0 5 2 2 3v7l-6 13-5 16-2 2-9-1-3-4 1-8 13-26z" fill="#FEFEFD"/>
<path transform="translate(1098,497)" d="m0 0h5l4 5 8 22v9l-5 4-7-1-4-8-5-20v-8z" fill="#FEFEFD"/>
<path transform="translate(1556,1411)" d="m0 0 3 1-1 4-3 5v6l4 5 4-2 4-6 2 1-1 6-3 4v2l14 10 4-2h3l-2 5-9 12h-3l2-7-4-2-11-8-3-1v3h-3v-7l-4-8v-11l4-8z" fill="#104996"/>
<path transform="translate(802,1648)" d="m0 0 16 5 1 3-2 1 1 5 4 1 2-5v-2l11 3 2 1-1 3-8 2-6 3 1 6 5 8 3 4-2 1-16-5-1-3h4l-3-7h-5l-3 3 1 3-6-1-8-4v-1l11-3 7-2-4-11-4-5z" fill="#114996"/>
<path transform="translate(1204,615)" d="m0 0 5 1 2 4-1 13-8 16-6 2h-10l-1-3 4-10 11-19z" fill="#FEFEFD"/>
<path transform="translate(1207,774)" d="m0 0 4 1 1 4-5 10-4 3-3 1-15 1-3 6h-5l-4-4-1-5 3-6 5-4 3-1 15-1z" fill="#FEFEFD"/>
<path transform="translate(1137,829)" d="m0 0h29l7 2 3 3-1 4-4 3-13 2h-15l-10-4-2-2 1-5z" fill="#FEFEFD"/>
<path transform="translate(1215,743)" d="m0 0h6l2 3v6l-4 5-18 10-7 3h-6l-4-5 2-5 25-15z" fill="#FEFEFD"/>
<path transform="translate(918,225)" d="m0 0h5l2 4v6l-4 5-16 9-10 6-4-1-2-3v-6l8-7 17-11z" fill="#FEFEFD"/>
<path transform="translate(1149,178)" d="m0 0h6l3 3-2 9-9 19-5 5-4 1-5-3-2-2 1-6 12-19 4-6z" fill="#FEFEFD"/>
<path transform="translate(1157,214)" d="m0 0 5 1 2 1 1 5-3 5-18 18-3 2h-6l-4-4 1-5 6-7h2v-2h2l1-3 8-7z" fill="#FEFEFD"/>
<path transform="translate(1080,125)" d="m0 0h7l3 2v7l-5 4-25 12-7 1-3-3 1-4 7-6 19-12z" fill="#FEFEFD"/>
<path transform="translate(1104,138)" d="m0 0h8l6 3 3 4-1 5-3 2h-15l-12 6h-6l-3-4v-5l5-4 14-6z" fill="#FEFEFD"/>
<path transform="translate(1336,1393)" d="m0 0h2l7 8 15 16 7 7 6 7-2 4-3 3-4-2-13-14-7-8-10-11-3-4v-2z" fill="#104996"/>
<path transform="translate(1191,587)" d="m0 0 4 2 2 7v12l-3 6-5 6-3 7-2 2h-3l-1-2-1-9v-13l5-7 5-10z" fill="#FEFEFD"/>
<path transform="translate(1162,804)" d="m0 0h29l4 3v6l-4 4h-32l-3-3 1-7z" fill="#FEFEFD"/>
<path transform="translate(1487,1518)" d="m0 0h5l1 5-2 2h-8l-5 5v2h7l8-4 9-1 3 3 1 5-3 7-5 6-9 5h-6l-1-5 2-2h5l3 1 6-4 1-1v-5l-3-1-16 6-5-1-3-4 1-6 5-7z" fill="#104997"/>
<path transform="translate(962,1505)" d="m0 0h8l-2 16-6 38-9-1 2-16 6-34z" fill="#104997"/>
<path transform="translate(1446,1284)" d="m0 0h6l6 4 3 5-1 9-7 6h-9l-5-4-2-4v-8l3-5z" fill="#114996"/>
<path transform="translate(630,1284)" d="m0 0h7l5 3 3 5v9l-4 5-4 2h-8l-6-5-2-5 1-7 5-6z" fill="#114996"/>
<path transform="translate(1613,1356)" d="m0 0 4 1 1 3-3 5h-7l-3 3-1 9 2 4 5 3h9l5-5 3-7 1-7h3l-1 11-5 10-5 6-6 3h-7l-6-4-3-5v-12l5-10 4-5z" fill="#114996"/>
<path transform="translate(919,1664)" d="m0 0h8l5 2-2 14-4 22v5l4 2-1 2-12-1-7-2 1-2 5-1 1-8 5-25v-4l-3-2z" fill="#104997"/>
<path transform="translate(1232,1646)" d="m0 0 5 1 13 38h6v2l-10 4-9 2v-3l2-1-1-8-8-27-6-2 1-3z" fill="#104996"/>
<path transform="translate(942,1668)" d="m0 0h8l5 1-1 14-4 28 5 1v3l-14-1-6-2 1-2 4-1 6-36-4-3z" fill="#104997"/>
<path transform="translate(1265,1453)" d="m0 0h10l4 5-1 9-8 7-5 3-4-1-8-16 9-6z" fill="#FEFEFD"/>
<path transform="translate(883,719)" d="m0 0 14 7-2 4-18 14-8 4-4-1v-6l4-6 9-10z" fill="#FEFEFD"/>
<path transform="translate(1364,1600)" d="m0 0 3 1 2 3 4-1 6-3 1 4-6 4h-2l7 14 1 3 6-1 6-5 1 3-3 5-7 5-6 1-5-4-8-14h-6v-2l3-3-1-6z" fill="#104997"/>
<path transform="translate(1159,244)" d="m0 0 4 2v6l-6 9-6 5h-26l1-3 10-4 14-11z" fill="#FEFEFD"/>
<path transform="translate(1067,1691)" d="m0 0 10 1 5 4 1 4-4 2h-3l-3-6-7-1-5 4-1 9 2 5 3 3 8 1 8-3 3 1-5 4-10 3-9-1-5-3-4-5-1-8 4-8 8-5z" fill="#114995"/>
<path transform="translate(1271,1654)" d="m0 0h6l5 5 3 7v6l-4 5-2 1h-7l-5-4-3-8v-6l4-5z" fill="#FEFEFD"/>
<path transform="translate(1547,1451)" d="m0 0 6 1-1 4-6 4-1 2v6l9 8 3 1 3-2h3l-2 5-9 10-1 2h-2v-7l-12-10-3-1-4 1 2-5 4-5 5 1 1-9z" fill="#104997"/>
<path transform="translate(848,1665)" d="m0 0h10l8 3 4 4 1 6h-8l-1-7-3-2h-7l-4 4-2 5 1 9 6 4 14 1-1 2-4 1h-10l-8-3-6-5-2-5 1-8 4-6z" fill="#104997"/>
<path transform="translate(1218,660)" d="m0 0 3 1-10 17-7 7-7 1-4-4v-6l6-10 9-3z" fill="#FEFEFD"/>
<path transform="translate(1047,466)" d="m0 0 5 1v42l-5-5-5-10-1-6v-16l2-4z" fill="#FEFEFD"/>
<path transform="translate(1017,121)" d="m0 0h6l1 1-1 7-6 10-7 13-4 2-4-6v-7l4-9 6-8z" fill="#FEFEFD"/>
<path transform="translate(643,1557)" d="m0 0 9 5 1 5v1l9 1 5 4 1 4-3 2h-3l-2-6-10-2-2 4-6 8 1 4 1 3-4-1-11-8-2-3 2-1 6 1 2-4 7-10z" fill="#104997"/>
<path transform="translate(712,1608)" d="m0 0 6 1 6 4 1 3-7 13-4 2-8-2-4-5v-6l4-6 3-3z" fill="#FEFEFD"/>
<path transform="translate(1053,121)" d="m0 0 6 1v3l-10 9-11 9-7 7h-5l-2-3 6-9 11-12 8-4z" fill="#FEFEFD"/>
<path transform="translate(531,1444)" d="m0 0 4 1 6 9-2 4-14 11 1 7h-3l-9-10-3-5 1-2 3 2 5-1 11-9 1-3z" fill="#104997"/>
<path transform="translate(1167,1689)" d="m0 0 8 1 4 5v6l-5 4-3 1h-8l-3-15z" fill="#FEFEFD"/>
<path transform="translate(864,1486)" d="m0 0h2v24l-6-1-12-4v-3z" fill="#FEFEFD"/>
<path transform="translate(1059,1518)" d="m0 0 3 2 8 17v4l-19 1 3-10z" fill="#FEFEFD"/>
<path transform="translate(926,1310)" d="m0 0h17l13 3 21 9 4 1h17l-3 2h-16l-15-6-13-5-5-1h-15l-6 1 1 1h15l14 3 4 3-9-2-4-1h-21l-11 3-3-1 4-2h3l1-4-9 3-3-1 10-4z" fill="#AF913C"/>
<path transform="translate(1048,1339)" d="m0 0h12l13 4 19 9 8 2h10l-4 3h-6l-16-6-15-7-6-2-11-1-6 1 15 2 10 4-3 1-6-2h-16l-12 3-3-1 5-1 1-3h4l1-3-12 4-4-1 12-4z" fill="#AF913C"/>
<path transform="translate(925,159)" d="m0 0h11v15h-14l-1-1v-7l2-6z" fill="#FEFEFD"/>
<path transform="translate(507,1420)" d="m0 0h6l4 4 1 6-3 5-7 2-5-3-2-4 1-6z" fill="#FEFEFD"/>
<path transform="translate(923,1341)" d="m0 0h20l11 3 22 10 4 1h14l21-6 8-3 3 1-16 6-13 4-6 1h-9l-12-4-15-7-9-3h-25l-1 2v-2l-12 4-5 1 4-3 11-4z" fill="#AF913D"/>
<path transform="translate(1040,1277)" d="m0 0h11l13 4 25 12 10 3h14l-2 2h-14l-13-5-21-10-10-3h-13v1l15 2 7 3-2 1-6-2h-16l-9 2v-3h4v-2h-6l2-2z" fill="#AF913C"/>
<path transform="translate(819,1338)" d="m0 0 13 1 19 7 16 7 12 3h11l-3 2h-11l-15-5-24-10-7-1v2l3 2h-18l-2-2 1-4z" fill="#AF913D"/>
<path transform="translate(890,350)" d="m0 0 7 1 10 5 1 6 2 3-4 9h-2l-2-10-10-6-2-3z" fill="#C19730"/>
<path transform="translate(1080,491)" d="m0 0h2l5 16 2 10-1 7-2 2h-5z" fill="#FEFEFD"/>
<path transform="translate(1162,1673)" d="m0 0h7l4 3v6l-3 3-6 2-5-1-2-10z" fill="#FEFEFD"/>
<path transform="translate(882,290)" d="m0 0 9 2 3 1 1 4-2 4-6 8-2 5-4-3v7h-1v-8l5-14-3-4z" fill="#BF9631"/>
<path transform="translate(1045,1364)" d="m0 0h23l10 4-3 1-5-2h-18l-8 1 4 1h18l3 2h-17l-14 2-6 1 1-2 5-1v-3l-8 1 2-2z" fill="#AF913D"/>
<path transform="translate(1195,1382)" d="m0 0 9 2 11 1-1 5-3 2h-8l-11-4-1-2 5-1 1-2z" fill="#B0913C"/>
<path transform="translate(1631,1325)" d="m0 0 5 1-5 13-3 4h-2l-3-7 2-7 3-3z" fill="#FEFEFD"/>
<path transform="translate(1593,1412)" d="m0 0 6 2 1 1-1 7-4 6-5-1-1-1v-6z" fill="#FEFEFD"/>
<path transform="translate(887,328)" d="m0 0 4 1-1 5v7l4-1 3 8 6 6-5-1-7-2-2 3-2-5v-11l1-8z" fill="#AF913D"/>
<path transform="translate(678,1586)" d="m0 0 6 1 4 5-1 7-4-1-10-6 2-4z" fill="#FEFEFD"/>
<path transform="translate(1442,1560)" d="m0 0 6 2 1 4-11 8h-2l-1-2v-6l4-5z" fill="#FEFEFD"/>
<path transform="translate(588,1514)" d="m0 0 6 1 4 4v6l-2 3-4-2-8-7 1-4z" fill="#FEFEFD"/>
<path transform="translate(617,1542)" d="m0 0h7l4 4v7l-1 2-5-2-8-7 1-3z" fill="#FEFEFD"/>
<path transform="translate(1103,1692)" d="m0 0h6l5 5-1 3-14 2-1-5z" fill="#FEFEFD"/>
<path transform="translate(1210,1673)" d="m0 0 5 1 3 4-1 3-10 3h-4v-6l4-4z" fill="#FEFEFD"/>
<path transform="translate(926,1395)" d="m0 0h16v1l-15 1 4 2 13 2v1h-11l-10 2-4 1-2-2 1-5z" fill="#AF913D"/>
<path transform="translate(977,1692)" d="m0 0h6l4 4 1 4-1 1h-10l-5-2 2-5z" fill="#FEFEFD"/>
<path transform="translate(889,1678)" d="m0 0h7l4 4v5h-8l-7-2 1-4z" fill="#FEFEFD"/>
<path transform="translate(1158,529)" d="m0 0 4 1 6 7 1 6-3 1-1 4-1-5h-2l-3-6-4-5z" fill="#C19730"/>
<path transform="translate(1303,1287)" d="m0 0 9 2 14 4v5l-4 1-13-3 4-1h2l-2-1v-2l-10-4z" fill="#B39239"/>
<path transform="translate(390,1226)" d="m0 0h5v3l1 8 2 1-2 1h-7v-11z" fill="#C4982F"/>
<path transform="translate(944,875)" d="m0 0h5l5 4 2 4v5l-5-2-6-4z" fill="#C3972F"/>
<path transform="translate(966,453)" d="m0 0 7 3 5 8-7-1-6-3-2-2 1-4z" fill="#C3972F"/>
<path transform="translate(1090,877)" d="m0 0 5 1 7 3-1 5-4 2-1-4-4-2-2-2z" fill="#C29730"/>
<path transform="translate(748,1260)" d="m0 0 6 2 10 3 12-1 9-2-4 3-10 3h-9l-14-7z" fill="#AF913D"/>
<path transform="translate(765,1287)" d="m0 0 5 1 7 3 8-1 7-2-3 3-4 2-14 1v-2h-2v-2h-3l-1 3-1-5z" fill="#AF913D"/>
<path transform="translate(865,709)" d="m0 0 5 2 8 5v1h-12l-1-1z" fill="#FEFEFD"/>
<path transform="translate(545,1440)" d="m0 0 5 2 1 6-4 2-4-3v-6z" fill="#104997"/>
<path transform="translate(1051,1311)" d="m0 0 8 1 4 2-2 1-3-1h-13l-12 3-3-1 6-2v-2z" fill="#AF913D"/>
<path transform="translate(1153,1344)" d="m0 0h19l3 2h-20l-16 3-3-1 5-3z" fill="#AF913D"/>
<path transform="translate(920,405)" d="m0 0 5 1 4 4v5l-5-1-3-5z" fill="#C29730"/>
<path transform="translate(1219,678)" d="m0 0h6v3l-8 4h-3l2-5z" fill="#FEFEFD"/>
<path transform="translate(1119,557)" d="m0 0 6 2 4 7h-5l-5-5z" fill="#BE9632"/>
<path transform="translate(947,363)" d="m0 0 5 1v10l-4 1z" fill="#C3972F"/>
<path transform="translate(1091,1416)" d="m0 0h7v2h7v1l-6 1h-8l-5-1 2-2z" fill="#AF913D"/>
<path transform="translate(1155,1313)" d="m0 0h12l5 2-3 1h-11l-10 2 2-3z" fill="#AF913D"/>
<path transform="translate(1145,1399)" d="m0 0h11l10 3 2 4-1 2h-5v-2l3-3-10-2-10-1z" fill="#AF913C"/>
<path transform="translate(882,1379)" d="m0 0h14l-4 4-6 1-3-1v-2l-2-1z" fill="#AF913D"/>
<path transform="translate(1035,478)" d="m0 0 2 2 1 3v8l-1 3h-2z" fill="#FEFEFD"/>
<path transform="translate(1029,1374)" d="m0 0 3 1-14 8-5 2 5-5z" fill="#AF913C"/>
<path transform="translate(1019,905)" d="m0 0 6 1v4h-8z" fill="#C4982F"/>
<path transform="translate(1139,577)" d="m0 0 5 1 1 5h-4l-2-2z" fill="#BF9632"/>
<path transform="translate(905,378)" d="m0 0 5 4 1 4-4 1-2-2z" fill="#C4982F"/>
<path transform="translate(817,1340)" d="m0 0h12v1l-11 1v4l-4-1v-4z" fill="#BB9534"/>
<path transform="translate(1274,1341)" d="m0 0 3 1-1 4h-12v-1l10-3z" fill="#AF913D"/>
<path transform="translate(992,896)" d="m0 0h4v6h-5l-1-3z" fill="#C2972F"/>
<path transform="translate(839,874)" d="m0 0 2 1v8l-3 3-1-7z" fill="#C4982F"/>
<path transform="translate(881,306)" d="m0 0 5 3-1 5-4-3v7h-1v-8z" fill="#AF913C"/>
<path transform="translate(1320,1292)" d="m0 0 6 1v5l-4 1-3-2h5l-1-2-3-1z" fill="#AF913D"/>
</svg>
